<svg width="13" height="8" viewBox="0 0 13 8" fill="none" xmlns="http://www.w3.org/2000/svg">
<path fill-rule="evenodd" clip-rule="evenodd" d="M0.91736 0.604903C1.08033 0.448109 1.29888 0.362431 1.52499 0.366697C1.7511 0.370964 1.96627 0.464825 2.12321 0.627655L6.34366 5.10748L10.5641 0.627655C10.6408 0.543081 10.7337 0.474767 10.8373 0.42676C10.941 0.378752 11.0531 0.352029 11.1673 0.348173C11.2814 0.344318 11.3951 0.363407 11.5017 0.404312C11.6083 0.445217 11.7056 0.507105 11.7879 0.586307C11.8701 0.66551 11.9356 0.760416 11.9805 0.865403C12.0254 0.97039 12.0488 1.08332 12.0493 1.1975C12.0497 1.31169 12.0272 1.4248 11.9832 1.53014C11.9391 1.63548 11.8743 1.7309 11.7927 1.81075L6.95796 6.9299C6.87837 7.01248 6.78295 7.07816 6.67741 7.12302C6.57186 7.16788 6.45835 7.191 6.34366 7.191C6.22898 7.191 6.11547 7.16788 6.00992 7.12302C5.90437 7.07816 5.80895 7.01248 5.72936 6.9299L0.894608 1.81075C0.737814 1.64778 0.652136 1.42923 0.656402 1.20312C0.660668 0.977008 0.75453 0.761842 0.91736 0.604903Z" fill="#D1D5DB"/>
</svg>
