<svg width="21" height="20" viewBox="0 0 21 20" fill="none" xmlns="http://www.w3.org/2000/svg">
<path d="M0 0H20V19H0V0Z" stroke="#1E1E1E"/>
<path d="M0 0H16V20H0V0Z" stroke="#1E1E1E"/>
<path d="M0.5 0H20.5V20H0.5V0Z" stroke="#E5E7EB"/>
<g clip-path="url(#clip0_975_459)">
<g clip-path="url(#clip1_975_459)">
<path d="M6.32422 2.53125L5.91797 3.75H3C1.62109 3.75 0.5 4.87109 0.5 6.25V16.25C0.5 17.6289 1.62109 18.75 3 18.75H18C19.3789 18.75 20.5 17.6289 20.5 16.25V6.25C20.5 4.87109 19.3789 3.75 18 3.75H15.082L14.6758 2.53125C14.4219 1.76563 13.707 1.25 12.8984 1.25H8.10156C7.29297 1.25 6.57812 1.76563 6.32422 2.53125ZM10.5 7.5C11.4946 7.5 12.4484 7.89509 13.1517 8.59835C13.8549 9.30161 14.25 10.2554 14.25 11.25C14.25 12.2446 13.8549 13.1984 13.1517 13.9017C12.4484 14.6049 11.4946 15 10.5 15C9.50544 15 8.55161 14.6049 7.84835 13.9017C7.14509 13.1984 6.75 12.2446 6.75 11.25C6.75 10.2554 7.14509 9.30161 7.84835 8.59835C8.55161 7.89509 9.50544 7.5 10.5 7.5Z" fill="#9CA3AF"/>
</g>
</g>
<defs>
<clipPath id="clip0_975_459">
<rect width="20" height="20" fill="white" transform="translate(0.5)"/>
</clipPath>
<clipPath id="clip1_975_459">
<path d="M0.5 0H20.5V20H0.5V0Z" fill="white"/>
</clipPath>
</defs>
</svg>
