<svg width="24" height="22" viewBox="0 0 24 22" fill="none" xmlns="http://www.w3.org/2000/svg">
<path d="M23 3.00001V9.00001M23 9.00001H17M23 9.00001L18.36 4.64001C17.2853 3.56473 15.9556 2.77922 14.4952 2.35679C13.0348 1.93436 11.4911 1.88877 10.0083 2.22427C8.52546 2.55978 7.1518 3.26545 6.01547 4.27543C4.87913 5.28542 4.01717 6.5668 3.51 8.00001M1 19V13M1 13H7M1 13L5.64 17.36C6.71475 18.4353 8.04437 19.2208 9.50481 19.6432C10.9652 20.0657 12.5089 20.1113 13.9917 19.7758C15.4745 19.4403 16.8482 18.7346 17.9845 17.7246C19.1209 16.7146 19.9828 15.4332 20.49 14" stroke="#9FEF00" stroke-width="2.4" stroke-linecap="round" stroke-linejoin="round"/>
</svg>
