<svg width="29" height="24" viewBox="0 0 29 24" fill="none" xmlns="http://www.w3.org/2000/svg">
<path d="M17.7584 0.394712C16.9898 0.173183 16.1896 0.620762 15.968 1.38933L10.1811 21.6434C9.95962 22.412 10.4072 23.2122 11.1758 23.4337C11.9443 23.6553 12.7446 23.2077 12.9661 22.4391L18.753 2.18503C18.9745 1.41646 18.5269 0.616241 17.7584 0.394712ZM21.4023 5.82444C20.8372 6.38956 20.8372 7.30733 21.4023 7.87245L25.4395 11.9142L21.3978 15.956C20.8326 16.5211 20.8326 17.4389 21.3978 18.004C21.9629 18.5691 22.8806 18.5691 23.4458 18.004L28.5093 12.9405C29.0744 12.3754 29.0744 11.4576 28.5093 10.8925L23.4458 5.82896C22.8806 5.26383 21.9629 5.26383 21.3978 5.82896L21.4023 5.82444ZM7.53636 5.82444C6.97123 5.25931 6.05347 5.25931 5.48835 5.82444L0.424821 10.888C-0.140305 11.4531 -0.140305 12.3709 0.424821 12.936L5.48835 17.9995C6.05347 18.5646 6.97123 18.5646 7.53636 17.9995C8.10149 17.4344 8.10149 16.5166 7.53636 15.9515L3.49458 11.9142L7.53636 7.87245C8.10149 7.30733 8.10149 6.38956 7.53636 5.82444Z" fill="white"/>
</svg>
