<svg width="41" height="36" viewBox="0 0 41 36" fill="none" xmlns="http://www.w3.org/2000/svg">
<g clip-path="url(#clip0_373_230)">
<path d="M0.5 9C0.5 6.51797 2.51797 4.5 5 4.5H23C25.482 4.5 27.5 6.51797 27.5 9V27C27.5 29.482 25.482 31.5 23 31.5H5C2.51797 31.5 0.5 29.482 0.5 27V9ZM39.8117 7.01719C40.543 7.41094 41 8.17031 41 9V27C41 27.8297 40.543 28.5891 39.8117 28.9828C39.0805 29.3766 38.1945 29.3344 37.4984 28.8703L30.7484 24.3703L29.75 23.7023V22.5V13.5V12.2977L30.7484 11.6297L37.4984 7.12969C38.1875 6.67266 39.0734 6.62344 39.8117 7.01719Z" fill="#6B7280"/>
</g>
<defs>
<clipPath id="clip0_373_230">
<path d="M0.5 0H41V36H0.5V0Z" fill="white"/>
</clipPath>
</defs>
</svg>
