<svg width="20" height="13" viewBox="0 0 20 13" fill="none" xmlns="http://www.w3.org/2000/svg">
<path d="M0.96875 2.3125C0.96875 1.19214 1.87964 0.28125 3 0.28125H11.125C12.2454 0.28125 13.1562 1.19214 13.1562 2.3125V10.4375C13.1562 11.5579 12.2454 12.4688 11.125 12.4688H3C1.87964 12.4688 0.96875 11.5579 0.96875 10.4375V2.3125ZM18.7136 1.41748C19.0437 1.59521 19.25 1.93799 19.25 2.3125V10.4375C19.25 10.812 19.0437 11.1548 18.7136 11.3325C18.3835 11.5103 17.9836 11.4912 17.6694 11.2817L14.6226 9.25049L14.1719 8.94897V8.40625V4.34375V3.80103L14.6226 3.49951L17.6694 1.46826C17.9805 1.26196 18.3804 1.23975 18.7136 1.41748Z" fill="#111927"/>
</svg>
