<svg width="21" height="18" viewBox="0 0 21 18" fill="none" xmlns="http://www.w3.org/2000/svg">
<path d="M6.32422 1.53125L5.91797 2.75H3C1.62109 2.75 0.5 3.87109 0.5 5.25V15.25C0.5 16.6289 1.62109 17.75 3 17.75H18C19.3789 17.75 20.5 16.6289 20.5 15.25V5.25C20.5 3.87109 19.3789 2.75 18 2.75H15.082L14.6758 1.53125C14.4219 0.765625 13.707 0.25 12.8984 0.25H8.10156C7.29297 0.25 6.57812 0.765625 6.32422 1.53125ZM10.5 6.5C11.4946 6.5 12.4484 6.89509 13.1517 7.59835C13.8549 8.30161 14.25 9.25544 14.25 10.25C14.25 11.2446 13.8549 12.1984 13.1517 12.9017C12.4484 13.6049 11.4946 14 10.5 14C9.50544 14 8.55161 13.6049 7.84835 12.9017C7.14509 12.1984 6.75 11.2446 6.75 10.25C6.75 9.25544 7.14509 8.30161 7.84835 7.59835C8.55161 6.89509 9.50544 6.5 10.5 6.5Z" fill="#9CA3AF"/>
</svg>
