<svg width="23" height="23" viewBox="0 0 23 23" fill="none" xmlns="http://www.w3.org/2000/svg">
<path d="M17.7035 22.1103L10.3763 14.7226C9.97262 14.8841 9.56387 15.0052 9.15008 15.0859C8.73629 15.1667 8.29726 15.207 7.83301 15.207C5.81451 15.207 4.09878 14.5006 2.68583 13.0876C1.27288 11.6747 0.566406 9.95893 0.566406 7.94043C0.566406 7.21377 0.667331 6.52243 0.869181 5.86642C1.07103 5.21041 1.35362 4.58972 1.71695 4.00435L6.13747 8.42487L8.31745 6.24489L3.89693 1.82437C4.4823 1.46104 5.10299 1.17845 5.759 0.976603C6.41501 0.774753 7.10635 0.673828 7.83301 0.673828C9.85151 0.673828 11.5672 1.3803 12.9802 2.79325C14.3931 4.2062 15.0996 5.92193 15.0996 7.94043C15.0996 8.40469 15.0592 8.84371 14.9785 9.2575C14.8978 9.67129 14.7766 10.08 14.6152 10.4837L22.0029 17.8109C22.2451 18.0531 22.3662 18.3458 22.3662 18.6889C22.3662 19.0321 22.2451 19.3248 22.0029 19.567L19.4596 22.1103C19.2174 22.3525 18.9247 22.4736 18.5815 22.4736C18.2384 22.4736 17.9457 22.3525 17.7035 22.1103ZM18.5815 19.5367L19.399 18.7192L11.648 10.9682C12.0113 10.5645 12.2737 10.0952 12.4352 9.56028C12.5967 9.02537 12.6774 8.48542 12.6774 7.94043C12.6774 6.72933 12.2888 5.67466 11.5117 4.77643C10.7346 3.8782 9.77077 3.33825 8.62022 3.15658L10.8608 5.39712C11.103 5.63934 11.2241 5.92193 11.2241 6.24489C11.2241 6.56785 11.103 6.85044 10.8608 7.09266L6.98524 10.9682C6.74302 11.2104 6.46043 11.3315 6.13747 11.3315C5.81451 11.3315 5.53192 11.2104 5.2897 10.9682L3.04916 8.72764C3.23083 9.87819 3.77078 10.842 4.66901 11.6191C5.56724 12.3963 6.62191 12.7848 7.83301 12.7848C8.35782 12.7848 8.88263 12.7041 9.40744 12.5426C9.93225 12.3811 10.4066 12.1288 10.8305 11.7857L18.5815 19.5367Z" fill="white"/>
</svg>
