<svg width="17" height="20" viewBox="0 0 17 20" fill="none" xmlns="http://www.w3.org/2000/svg">
<path d="M4.84593 16H12.6921V14H4.84593V16ZM4.84593 12H12.6921V10H4.84593V12ZM2.88439 20C2.34497 20 1.88319 19.8042 1.49905 19.4125C1.11492 19.0208 0.922852 18.55 0.922852 18V2C0.922852 1.45 1.11492 0.979167 1.49905 0.5875C1.88319 0.195833 2.34497 0 2.88439 0H10.7305L16.6152 6V18C16.6152 18.55 16.4231 19.0208 16.039 19.4125C15.6548 19.8042 15.193 20 14.6536 20H2.88439ZM9.74977 7V2H2.88439V18H14.6536V7H9.74977Z" fill="white"/>
</svg>
