<svg width="22" height="17" viewBox="0 0 22 17" fill="none" xmlns="http://www.w3.org/2000/svg">
<g id="svg">
<g id="Frame">
<g clip-path="url(#clip0_1011_1069)">
<path id="Vector" d="M8.0932 1.03074C7.84881 0.440413 7.20452 0.126204 6.5888 0.294417L3.79583 1.05614C3.24359 1.20848 2.85955 1.70994 2.85955 2.28123C2.85955 5.68992 4.05926 8.81932 6.05877 11.2663L1.1203 15.1384C0.790217 15.3987 0.729915 15.8779 0.990169 16.208C1.25042 16.5381 1.72967 16.5984 2.05975 16.3381L20.8488 1.61156C21.1789 1.3513 21.2392 0.872054 20.9789 0.541975C20.7187 0.211897 20.2394 0.151595 19.9094 0.411848L8.85809 9.07323C8.29315 8.39085 7.8139 7.63866 7.42987 6.82933L8.99456 5.55028C9.42938 5.19481 9.57855 4.59813 9.36273 4.08079L8.0932 1.03392V1.03074ZM11.1655 11.1553L8.26776 13.4404C10.6894 15.3574 13.749 16.5 17.0783 16.5C17.6496 16.5 18.1511 16.116 18.3034 15.5637L19.0651 12.7707C19.2333 12.155 18.9191 11.5107 18.3288 11.2663L15.2819 9.99681C14.7646 9.78099 14.1647 9.93016 13.8124 10.365L12.5302 11.9297C12.0541 11.7043 11.6003 11.4472 11.1655 11.1584V11.1553Z" fill="white"/>
</g>
</g>
</g>
<defs>
<clipPath id="clip0_1011_1069">
<path d="M0.828125 0.25H21.1406V16.5H0.828125V0.25Z" fill="white"/>
</clipPath>
</defs>
</svg>
