<svg width="53" height="20" viewBox="0 0 53 20" fill="none" xmlns="http://www.w3.org/2000/svg">
<path d="M48.1875 0C50.3966 0 52.1875 1.79086 52.1875 4V16C52.1875 18.2091 50.3966 20 48.1875 20H4C1.79086 20 0 18.2091 0 16V4C0 1.79086 1.79086 0 4 0H48.1875Z" fill="#FEE2E2"/>
<path d="M48.1875 0C50.3966 0 52.1875 1.79086 52.1875 4V16C52.1875 18.2091 50.3966 20 48.1875 20H4C1.79086 20 0 18.2091 0 16V4C0 1.79086 1.79086 0 4 0H48.1875Z" stroke="#E5E7EB"/>
<path d="M12.3379 5.46875V14H10.8672V5.46875H12.3379ZM15.8184 9.20117V10.3672H11.9629V9.20117H15.8184ZM16.3047 5.46875V6.64062H11.9629V5.46875H16.3047ZM20.7109 12.7285V9.70508C20.7109 9.47852 20.6699 9.2832 20.5879 9.11914C20.5059 8.95508 20.3809 8.82812 20.2129 8.73828C20.0488 8.64844 19.8418 8.60352 19.5918 8.60352C19.3613 8.60352 19.1621 8.64258 18.9941 8.7207C18.8262 8.79883 18.6953 8.9043 18.6016 9.03711C18.5078 9.16992 18.4609 9.32031 18.4609 9.48828H17.0547C17.0547 9.23828 17.1152 8.99609 17.2363 8.76172C17.3574 8.52734 17.5332 8.31836 17.7637 8.13477C17.9941 7.95117 18.2695 7.80664 18.5898 7.70117C18.9102 7.5957 19.2695 7.54297 19.668 7.54297C20.1445 7.54297 20.5664 7.62305 20.9336 7.7832C21.3047 7.94336 21.5957 8.18555 21.8066 8.50977C22.0215 8.83008 22.1289 9.23242 22.1289 9.7168V12.5352C22.1289 12.8242 22.1484 13.084 22.1875 13.3145C22.2305 13.541 22.291 13.7383 22.3691 13.9062V14H20.9219C20.8555 13.8477 20.8027 13.6543 20.7637 13.4199C20.7285 13.1816 20.7109 12.9512 20.7109 12.7285ZM20.916 10.1445L20.9277 11.0176H19.9141C19.6523 11.0176 19.4219 11.043 19.2227 11.0938C19.0234 11.1406 18.8574 11.2109 18.7246 11.3047C18.5918 11.3984 18.4922 11.5117 18.4258 11.6445C18.3594 11.7773 18.3262 11.9277 18.3262 12.0957C18.3262 12.2637 18.3652 12.418 18.4434 12.5586C18.5215 12.6953 18.6348 12.8027 18.7832 12.8809C18.9355 12.959 19.1191 12.998 19.334 12.998C19.623 12.998 19.875 12.9395 20.0898 12.8223C20.3086 12.7012 20.4805 12.5547 20.6055 12.3828C20.7305 12.207 20.7969 12.041 20.8047 11.8848L21.2617 12.5117C21.2148 12.6719 21.1348 12.8438 21.0215 13.0273C20.9082 13.2109 20.7598 13.3867 20.5762 13.5547C20.3965 13.7188 20.1797 13.8535 19.9258 13.959C19.6758 14.0645 19.3867 14.1172 19.0586 14.1172C18.6445 14.1172 18.2754 14.0352 17.9512 13.8711C17.627 13.7031 17.373 13.4785 17.1895 13.1973C17.0059 12.9121 16.9141 12.5898 16.9141 12.2305C16.9141 11.8945 16.9766 11.5977 17.1016 11.3398C17.2305 11.0781 17.418 10.8594 17.6641 10.6836C17.9141 10.5078 18.2188 10.375 18.5781 10.2852C18.9375 10.1914 19.3477 10.1445 19.8086 10.1445H20.916ZM25.1172 7.66016V14H23.6992V7.66016H25.1172ZM23.6055 5.99609C23.6055 5.78125 23.6758 5.60352 23.8164 5.46289C23.9609 5.31836 24.1602 5.24609 24.4141 5.24609C24.6641 5.24609 24.8613 5.31836 25.0059 5.46289C25.1504 5.60352 25.2227 5.78125 25.2227 5.99609C25.2227 6.20703 25.1504 6.38281 25.0059 6.52344C24.8613 6.66406 24.6641 6.73438 24.4141 6.73438C24.1602 6.73438 23.9609 6.66406 23.8164 6.52344C23.6758 6.38281 23.6055 6.20703 23.6055 5.99609ZM28.1758 5V14H26.7578V5H28.1758ZM32.5176 14.1172C32.0488 14.1172 31.625 14.041 31.2461 13.8887C30.8711 13.7324 30.5508 13.5156 30.2852 13.2383C30.0234 12.9609 29.8223 12.6348 29.6816 12.2598C29.541 11.8848 29.4707 11.4805 29.4707 11.0469V10.8125C29.4707 10.3164 29.543 9.86719 29.6875 9.46484C29.832 9.0625 30.0332 8.71875 30.291 8.43359C30.5488 8.14453 30.8535 7.92383 31.2051 7.77148C31.5566 7.61914 31.9375 7.54297 32.3477 7.54297C32.8008 7.54297 33.1973 7.61914 33.5371 7.77148C33.877 7.92383 34.1582 8.13867 34.3809 8.41602C34.6074 8.68945 34.7754 9.01562 34.8848 9.39453C34.998 9.77344 35.0547 10.1914 35.0547 10.6484V11.252H30.1562V10.2383H33.6602V10.127C33.6523 9.87305 33.6016 9.63477 33.5078 9.41211C33.418 9.18945 33.2793 9.00977 33.0918 8.87305C32.9043 8.73633 32.6543 8.66797 32.3418 8.66797C32.1074 8.66797 31.8984 8.71875 31.7148 8.82031C31.5352 8.91797 31.3848 9.06055 31.2637 9.24805C31.1426 9.43555 31.0488 9.66211 30.9824 9.92773C30.9199 10.1895 30.8887 10.4844 30.8887 10.8125V11.0469C30.8887 11.3242 30.9258 11.582 31 11.8203C31.0781 12.0547 31.1914 12.2598 31.3398 12.4355C31.4883 12.6113 31.668 12.75 31.8789 12.8516C32.0898 12.9492 32.3301 12.998 32.5996 12.998C32.9395 12.998 33.2422 12.9297 33.5078 12.793C33.7734 12.6562 34.0039 12.4629 34.1992 12.2129L34.9434 12.9336C34.8066 13.1328 34.6289 13.3242 34.4102 13.5078C34.1914 13.6875 33.9238 13.834 33.6074 13.9473C33.2949 14.0605 32.9316 14.1172 32.5176 14.1172ZM40.0234 12.6875V5H41.4414V14H40.1582L40.0234 12.6875ZM35.8984 10.9004V10.7773C35.8984 10.2969 35.9551 9.85938 36.0684 9.46484C36.1816 9.06641 36.3457 8.72461 36.5605 8.43945C36.7754 8.15039 37.0371 7.92969 37.3457 7.77734C37.6543 7.62109 38.002 7.54297 38.3887 7.54297C38.7715 7.54297 39.1074 7.61719 39.3965 7.76562C39.6855 7.91406 39.9316 8.12695 40.1348 8.4043C40.3379 8.67773 40.5 9.00586 40.6211 9.38867C40.7422 9.76758 40.8281 10.1895 40.8789 10.6543V11.0469C40.8281 11.5 40.7422 11.9141 40.6211 12.2891C40.5 12.6641 40.3379 12.9883 40.1348 13.2617C39.9316 13.5352 39.6836 13.7461 39.3906 13.8945C39.1016 14.043 38.7637 14.1172 38.377 14.1172C37.9941 14.1172 37.6484 14.0371 37.3398 13.877C37.0352 13.7168 36.7754 13.4922 36.5605 13.2031C36.3457 12.9141 36.1816 12.5742 36.0684 12.1836C35.9551 11.7891 35.8984 11.3613 35.8984 10.9004ZM37.3105 10.7773V10.9004C37.3105 11.1895 37.3359 11.459 37.3867 11.709C37.4414 11.959 37.5254 12.1797 37.6387 12.3711C37.752 12.5586 37.8984 12.707 38.0781 12.8164C38.2617 12.9219 38.4805 12.9746 38.7344 12.9746C39.0547 12.9746 39.3184 12.9043 39.5254 12.7637C39.7324 12.623 39.8945 12.4336 40.0117 12.1953C40.1328 11.9531 40.2148 11.6836 40.2578 11.3867V10.3262C40.2344 10.0957 40.1855 9.88086 40.1113 9.68164C40.041 9.48242 39.9453 9.30859 39.8242 9.16016C39.7031 9.00781 39.5527 8.89062 39.373 8.80859C39.1973 8.72266 38.9883 8.67969 38.7461 8.67969C38.4883 8.67969 38.2695 8.73438 38.0898 8.84375C37.9102 8.95312 37.7617 9.10352 37.6445 9.29492C37.5312 9.48633 37.4473 9.70898 37.3926 9.96289C37.3379 10.2168 37.3105 10.4883 37.3105 10.7773Z" fill="#991B1B"/>
</svg>
