<svg width="585" height="112" viewBox="0 0 585 112" fill="none" xmlns="http://www.w3.org/2000/svg">
<path d="M365 47.4816C363.896 47.4816 363 48.377 363 49.4816V111.72H369.762V56.2435C369.762 55.1389 370.658 54.2435 371.762 54.2435L388.5 54.2434V47.4814L365 47.4816Z" fill="#9FEF00"/>
<circle cx="6.08571" cy="6.08571" r="6.08571" transform="matrix(-1 0 0 1 398.014 44.7769)" fill="#9FEF00"/>
<circle cx="4.05714" cy="4.05714" r="4.05714" transform="matrix(-1 0 0 1 395.986 46.8052)" fill="#111927"/>
<path d="M440.304 44.896H443.124V46H438.936V37.66H440.304V44.896ZM444.964 38.512C444.716 38.512 444.508 38.428 444.34 38.26C444.172 38.092 444.088 37.884 444.088 37.636C444.088 37.388 444.172 37.18 444.34 37.012C444.508 36.844 444.716 36.76 444.964 36.76C445.204 36.76 445.408 36.844 445.576 37.012C445.744 37.18 445.828 37.388 445.828 37.636C445.828 37.884 445.744 38.092 445.576 38.26C445.408 38.428 445.204 38.512 444.964 38.512ZM445.636 39.388V46H444.268V39.388H445.636ZM449.988 44.776L451.86 39.388H453.312L450.792 46H449.16L446.652 39.388H448.116L449.988 44.776ZM460.406 42.532C460.406 42.78 460.39 43.004 460.358 43.204H455.306C455.346 43.732 455.542 44.156 455.894 44.476C456.246 44.796 456.678 44.956 457.19 44.956C457.926 44.956 458.446 44.648 458.75 44.032H460.226C460.026 44.64 459.662 45.14 459.134 45.532C458.614 45.916 457.966 46.108 457.19 46.108C456.558 46.108 455.99 45.968 455.486 45.688C454.99 45.4 454.598 45 454.31 44.488C454.03 43.968 453.89 43.368 453.89 42.688C453.89 42.008 454.026 41.412 454.298 40.9C454.578 40.38 454.966 39.98 455.462 39.7C455.966 39.42 456.542 39.28 457.19 39.28C457.814 39.28 458.37 39.416 458.858 39.688C459.346 39.96 459.726 40.344 459.998 40.84C460.27 41.328 460.406 41.892 460.406 42.532ZM458.978 42.1C458.97 41.596 458.79 41.192 458.438 40.888C458.086 40.584 457.65 40.432 457.13 40.432C456.658 40.432 456.254 40.584 455.918 40.888C455.582 41.184 455.382 41.588 455.318 42.1H458.978ZM527.421 58.348C527.621 58.012 527.885 57.752 528.213 57.568C528.549 57.376 528.945 57.28 529.401 57.28V58.696H529.053C528.517 58.696 528.109 58.832 527.829 59.104C527.557 59.376 527.421 59.848 527.421 60.52V64H526.053V57.388H527.421V58.348ZM536.719 60.532C536.719 60.78 536.703 61.004 536.671 61.204H531.619C531.659 61.732 531.855 62.156 532.207 62.476C532.559 62.796 532.991 62.956 533.503 62.956C534.239 62.956 534.759 62.648 535.063 62.032H536.539C536.339 62.64 535.975 63.14 535.447 63.532C534.927 63.916 534.279 64.108 533.503 64.108C532.871 64.108 532.303 63.968 531.799 63.688C531.303 63.4 530.911 63 530.623 62.488C530.343 61.968 530.203 61.368 530.203 60.688C530.203 60.008 530.339 59.412 530.611 58.9C530.891 58.38 531.279 57.98 531.775 57.7C532.279 57.42 532.855 57.28 533.503 57.28C534.127 57.28 534.683 57.416 535.171 57.688C535.659 57.96 536.039 58.344 536.311 58.84C536.583 59.328 536.719 59.892 536.719 60.532ZM535.291 60.1C535.283 59.596 535.103 59.192 534.751 58.888C534.399 58.584 533.963 58.432 533.443 58.432C532.971 58.432 532.567 58.584 532.231 58.888C531.895 59.184 531.695 59.588 531.631 60.1H535.291ZM537.609 60.664C537.609 60 537.745 59.412 538.017 58.9C538.297 58.388 538.673 57.992 539.145 57.712C539.625 57.424 540.153 57.28 540.729 57.28C541.249 57.28 541.701 57.384 542.085 57.592C542.477 57.792 542.789 58.044 543.021 58.348V57.388H544.401V64H543.021V63.016C542.789 63.328 542.473 63.588 542.073 63.796C541.673 64.004 541.217 64.108 540.705 64.108C540.137 64.108 539.617 63.964 539.145 63.676C538.673 63.38 538.297 62.972 538.017 62.452C537.745 61.924 537.609 61.328 537.609 60.664ZM543.021 60.688C543.021 60.232 542.925 59.836 542.733 59.5C542.549 59.164 542.305 58.908 542.001 58.732C541.697 58.556 541.369 58.468 541.017 58.468C540.665 58.468 540.337 58.556 540.033 58.732C539.729 58.9 539.481 59.152 539.289 59.488C539.105 59.816 539.013 60.208 539.013 60.664C539.013 61.12 539.105 61.52 539.289 61.864C539.481 62.208 539.729 62.472 540.033 62.656C540.345 62.832 540.673 62.92 541.017 62.92C541.369 62.92 541.697 62.832 542.001 62.656C542.305 62.48 542.549 62.224 542.733 61.888C542.925 61.544 543.021 61.144 543.021 60.688ZM547.566 55.12V64H546.198V55.12H547.566ZM554.075 58.504V62.164C554.075 62.412 554.131 62.592 554.243 62.704C554.363 62.808 554.563 62.86 554.843 62.86H555.683V64H554.603C553.987 64 553.515 63.856 553.187 63.568C552.859 63.28 552.695 62.812 552.695 62.164V58.504H551.915V57.388H552.695V55.744H554.075V57.388H555.683V58.504H554.075ZM557.64 56.512C557.392 56.512 557.184 56.428 557.016 56.26C556.848 56.092 556.764 55.884 556.764 55.636C556.764 55.388 556.848 55.18 557.016 55.012C557.184 54.844 557.392 54.76 557.64 54.76C557.88 54.76 558.084 54.844 558.252 55.012C558.42 55.18 558.504 55.388 558.504 55.636C558.504 55.884 558.42 56.092 558.252 56.26C558.084 56.428 557.88 56.512 557.64 56.512ZM558.312 57.388V64H556.944V57.388H558.312ZM568.112 57.28C568.632 57.28 569.096 57.388 569.504 57.604C569.92 57.82 570.244 58.14 570.476 58.564C570.716 58.988 570.836 59.5 570.836 60.1V64H569.48V60.304C569.48 59.712 569.332 59.26 569.036 58.948C568.74 58.628 568.336 58.468 567.824 58.468C567.312 58.468 566.904 58.628 566.6 58.948C566.304 59.26 566.156 59.712 566.156 60.304V64H564.8V60.304C564.8 59.712 564.652 59.26 564.356 58.948C564.06 58.628 563.656 58.468 563.144 58.468C562.632 58.468 562.224 58.628 561.92 58.948C561.624 59.26 561.476 59.712 561.476 60.304V64H560.108V57.388H561.476V58.144C561.7 57.872 561.984 57.66 562.328 57.508C562.672 57.356 563.04 57.28 563.432 57.28C563.96 57.28 564.432 57.392 564.848 57.616C565.264 57.84 565.584 58.164 565.808 58.588C566.008 58.188 566.32 57.872 566.744 57.64C567.168 57.4 567.624 57.28 568.112 57.28ZM578.637 60.532C578.637 60.78 578.621 61.004 578.589 61.204H573.537C573.577 61.732 573.773 62.156 574.125 62.476C574.477 62.796 574.909 62.956 575.421 62.956C576.157 62.956 576.677 62.648 576.981 62.032H578.457C578.257 62.64 577.893 63.14 577.365 63.532C576.845 63.916 576.197 64.108 575.421 64.108C574.789 64.108 574.221 63.968 573.717 63.688C573.221 63.4 572.829 63 572.541 62.488C572.261 61.968 572.121 61.368 572.121 60.688C572.121 60.008 572.257 59.412 572.529 58.9C572.809 58.38 573.197 57.98 573.693 57.7C574.197 57.42 574.773 57.28 575.421 57.28C576.045 57.28 576.601 57.416 577.089 57.688C577.577 57.96 577.957 58.344 578.229 58.84C578.501 59.328 578.637 59.892 578.637 60.532ZM577.209 60.1C577.201 59.596 577.021 59.192 576.669 58.888C576.317 58.584 575.881 58.432 575.361 58.432C574.889 58.432 574.485 58.584 574.149 58.888C573.813 59.184 573.613 59.588 573.549 60.1H577.209Z" fill="#9FEF00"/>
<path d="M468.674 46.084C467.898 46.084 467.182 45.904 466.526 45.544C465.878 45.176 465.362 44.668 464.978 44.02C464.602 43.364 464.414 42.628 464.414 41.812C464.414 40.996 464.602 40.264 464.978 39.616C465.362 38.968 465.878 38.464 466.526 38.104C467.182 37.736 467.898 37.552 468.674 37.552C469.458 37.552 470.174 37.736 470.822 38.104C471.478 38.464 471.994 38.968 472.37 39.616C472.746 40.264 472.934 40.996 472.934 41.812C472.934 42.628 472.746 43.364 472.37 44.02C471.994 44.668 471.478 45.176 470.822 45.544C470.174 45.904 469.458 46.084 468.674 46.084ZM468.674 44.896C469.226 44.896 469.718 44.772 470.15 44.524C470.582 44.268 470.918 43.908 471.158 43.444C471.406 42.972 471.53 42.428 471.53 41.812C471.53 41.196 471.406 40.656 471.158 40.192C470.918 39.728 470.582 39.372 470.15 39.124C469.718 38.876 469.226 38.752 468.674 38.752C468.122 38.752 467.63 38.876 467.198 39.124C466.766 39.372 466.426 39.728 466.178 40.192C465.938 40.656 465.818 41.196 465.818 41.812C465.818 42.428 465.938 42.972 466.178 43.444C466.426 43.908 466.766 44.268 467.198 44.524C467.63 44.772 468.122 44.896 468.674 44.896ZM480.268 39.388V46H478.9V45.22C478.684 45.492 478.4 45.708 478.048 45.868C477.704 46.02 477.336 46.096 476.944 46.096C476.424 46.096 475.956 45.988 475.54 45.772C475.132 45.556 474.808 45.236 474.568 44.812C474.336 44.388 474.22 43.876 474.22 43.276V39.388H475.576V43.072C475.576 43.664 475.724 44.12 476.02 44.44C476.316 44.752 476.72 44.908 477.232 44.908C477.744 44.908 478.148 44.752 478.444 44.44C478.748 44.12 478.9 43.664 478.9 43.072V39.388H480.268ZM483.669 40.504V44.164C483.669 44.412 483.725 44.592 483.837 44.704C483.957 44.808 484.157 44.86 484.437 44.86H485.277V46H484.197C483.581 46 483.109 45.856 482.781 45.568C482.453 45.28 482.289 44.812 482.289 44.164V40.504H481.509V39.388H482.289V37.744H483.669V39.388H485.277V40.504H483.669ZM487.906 40.36C488.138 40.056 488.454 39.8 488.854 39.592C489.254 39.384 489.706 39.28 490.21 39.28C490.786 39.28 491.31 39.424 491.782 39.712C492.262 39.992 492.638 40.388 492.91 40.9C493.182 41.412 493.318 42 493.318 42.664C493.318 43.328 493.182 43.924 492.91 44.452C492.638 44.972 492.262 45.38 491.782 45.676C491.31 45.964 490.786 46.108 490.21 46.108C489.706 46.108 489.258 46.008 488.866 45.808C488.474 45.6 488.154 45.344 487.906 45.04V49.144H486.538V39.388H487.906V40.36ZM491.926 42.664C491.926 42.208 491.83 41.816 491.638 41.488C491.454 41.152 491.206 40.9 490.894 40.732C490.59 40.556 490.262 40.468 489.91 40.468C489.566 40.468 489.238 40.556 488.926 40.732C488.622 40.908 488.374 41.164 488.182 41.5C487.998 41.836 487.906 42.232 487.906 42.688C487.906 43.144 487.998 43.544 488.182 43.888C488.374 44.224 488.622 44.48 488.926 44.656C489.238 44.832 489.566 44.92 489.91 44.92C490.262 44.92 490.59 44.832 490.894 44.656C491.206 44.472 491.454 44.208 491.638 43.864C491.83 43.52 491.926 43.12 491.926 42.664ZM500.659 39.388V46H499.291V45.22C499.075 45.492 498.791 45.708 498.439 45.868C498.095 46.02 497.727 46.096 497.335 46.096C496.815 46.096 496.347 45.988 495.931 45.772C495.523 45.556 495.199 45.236 494.959 44.812C494.727 44.388 494.611 43.876 494.611 43.276V39.388H495.967V43.072C495.967 43.664 496.115 44.12 496.411 44.44C496.707 44.752 497.111 44.908 497.623 44.908C498.135 44.908 498.539 44.752 498.835 44.44C499.139 44.12 499.291 43.664 499.291 43.072V39.388H500.659ZM504.059 40.504V44.164C504.059 44.412 504.115 44.592 504.227 44.704C504.347 44.808 504.547 44.86 504.827 44.86H505.667V46H504.587C503.971 46 503.499 45.856 503.171 45.568C502.843 45.28 502.679 44.812 502.679 44.164V40.504H501.899V39.388H502.679V37.744H504.059V39.388H505.667V40.504H504.059ZM512.794 46.084C512.234 46.084 511.73 45.988 511.282 45.796C510.834 45.596 510.482 45.316 510.226 44.956C509.97 44.596 509.842 44.176 509.842 43.696H511.306C511.338 44.056 511.478 44.352 511.726 44.584C511.982 44.816 512.338 44.932 512.794 44.932C513.266 44.932 513.634 44.82 513.898 44.596C514.162 44.364 514.294 44.068 514.294 43.708C514.294 43.428 514.21 43.2 514.042 43.024C513.882 42.848 513.678 42.712 513.43 42.616C513.19 42.52 512.854 42.416 512.422 42.304C511.878 42.16 511.434 42.016 511.09 41.872C510.754 41.72 510.466 41.488 510.226 41.176C509.986 40.864 509.866 40.448 509.866 39.928C509.866 39.448 509.986 39.028 510.226 38.668C510.466 38.308 510.802 38.032 511.234 37.84C511.666 37.648 512.166 37.552 512.734 37.552C513.542 37.552 514.202 37.756 514.714 38.164C515.234 38.564 515.522 39.116 515.578 39.82H514.066C514.042 39.516 513.898 39.256 513.634 39.04C513.37 38.824 513.022 38.716 512.59 38.716C512.198 38.716 511.878 38.816 511.63 39.016C511.382 39.216 511.258 39.504 511.258 39.88C511.258 40.136 511.334 40.348 511.486 40.516C511.646 40.676 511.846 40.804 512.086 40.9C512.326 40.996 512.654 41.1 513.07 41.212C513.622 41.364 514.07 41.516 514.414 41.668C514.766 41.82 515.062 42.056 515.302 42.376C515.55 42.688 515.674 43.108 515.674 43.636C515.674 44.06 515.558 44.46 515.326 44.836C515.102 45.212 514.77 45.516 514.33 45.748C513.898 45.972 513.386 46.084 512.794 46.084ZM518.884 40.504V44.164C518.884 44.412 518.94 44.592 519.052 44.704C519.172 44.808 519.372 44.86 519.652 44.86H520.492V46H519.412C518.796 46 518.324 45.856 517.996 45.568C517.668 45.28 517.504 44.812 517.504 44.164V40.504H516.724V39.388H517.504V37.744H518.884V39.388H520.492V40.504H518.884ZM523.121 40.348C523.321 40.012 523.585 39.752 523.913 39.568C524.249 39.376 524.645 39.28 525.101 39.28V40.696H524.753C524.217 40.696 523.809 40.832 523.529 41.104C523.257 41.376 523.121 41.848 523.121 42.52V46H521.753V39.388H523.121V40.348ZM532.418 42.532C532.418 42.78 532.402 43.004 532.37 43.204H527.318C527.358 43.732 527.554 44.156 527.906 44.476C528.258 44.796 528.69 44.956 529.202 44.956C529.938 44.956 530.458 44.648 530.762 44.032H532.238C532.038 44.64 531.674 45.14 531.146 45.532C530.626 45.916 529.978 46.108 529.202 46.108C528.57 46.108 528.002 45.968 527.498 45.688C527.002 45.4 526.61 45 526.322 44.488C526.042 43.968 525.902 43.368 525.902 42.688C525.902 42.008 526.038 41.412 526.31 40.9C526.59 40.38 526.978 39.98 527.474 39.7C527.978 39.42 528.554 39.28 529.202 39.28C529.826 39.28 530.382 39.416 530.87 39.688C531.358 39.96 531.738 40.344 532.01 40.84C532.282 41.328 532.418 41.892 532.418 42.532ZM530.99 42.1C530.982 41.596 530.802 41.192 530.45 40.888C530.098 40.584 529.662 40.432 529.142 40.432C528.67 40.432 528.266 40.584 527.93 40.888C527.594 41.184 527.394 41.588 527.33 42.1H530.99ZM533.308 42.664C533.308 42 533.444 41.412 533.716 40.9C533.996 40.388 534.372 39.992 534.844 39.712C535.324 39.424 535.852 39.28 536.428 39.28C536.948 39.28 537.4 39.384 537.784 39.592C538.176 39.792 538.488 40.044 538.72 40.348V39.388H540.1V46H538.72V45.016C538.488 45.328 538.172 45.588 537.772 45.796C537.372 46.004 536.916 46.108 536.404 46.108C535.836 46.108 535.316 45.964 534.844 45.676C534.372 45.38 533.996 44.972 533.716 44.452C533.444 43.924 533.308 43.328 533.308 42.664ZM538.72 42.688C538.72 42.232 538.624 41.836 538.432 41.5C538.248 41.164 538.004 40.908 537.7 40.732C537.396 40.556 537.068 40.468 536.716 40.468C536.364 40.468 536.036 40.556 535.732 40.732C535.428 40.9 535.18 41.152 534.988 41.488C534.804 41.816 534.712 42.208 534.712 42.664C534.712 43.12 534.804 43.52 534.988 43.864C535.18 44.208 535.428 44.472 535.732 44.656C536.044 44.832 536.372 44.92 536.716 44.92C537.068 44.92 537.396 44.832 537.7 44.656C538.004 44.48 538.248 44.224 538.432 43.888C538.624 43.544 538.72 43.144 538.72 42.688ZM549.901 39.28C550.421 39.28 550.885 39.388 551.293 39.604C551.709 39.82 552.033 40.14 552.265 40.564C552.505 40.988 552.625 41.5 552.625 42.1V46H551.269V42.304C551.269 41.712 551.121 41.26 550.825 40.948C550.529 40.628 550.125 40.468 549.613 40.468C549.101 40.468 548.693 40.628 548.389 40.948C548.093 41.26 547.945 41.712 547.945 42.304V46H546.589V42.304C546.589 41.712 546.441 41.26 546.145 40.948C545.849 40.628 545.445 40.468 544.933 40.468C544.421 40.468 544.013 40.628 543.709 40.948C543.413 41.26 543.265 41.712 543.265 42.304V46H541.897V39.388H543.265V40.144C543.489 39.872 543.773 39.66 544.117 39.508C544.461 39.356 544.829 39.28 545.221 39.28C545.749 39.28 546.221 39.392 546.637 39.616C547.053 39.84 547.373 40.164 547.597 40.588C547.797 40.188 548.109 39.872 548.533 39.64C548.957 39.4 549.413 39.28 549.901 39.28ZM416.067 64.084C415.507 64.084 415.003 63.988 414.555 63.796C414.107 63.596 413.755 63.316 413.499 62.956C413.243 62.596 413.115 62.176 413.115 61.696H414.579C414.611 62.056 414.751 62.352 414.999 62.584C415.255 62.816 415.611 62.932 416.067 62.932C416.539 62.932 416.907 62.82 417.171 62.596C417.435 62.364 417.567 62.068 417.567 61.708C417.567 61.428 417.483 61.2 417.315 61.024C417.155 60.848 416.951 60.712 416.703 60.616C416.463 60.52 416.127 60.416 415.695 60.304C415.151 60.16 414.707 60.016 414.363 59.872C414.027 59.72 413.739 59.488 413.499 59.176C413.259 58.864 413.139 58.448 413.139 57.928C413.139 57.448 413.259 57.028 413.499 56.668C413.739 56.308 414.075 56.032 414.507 55.84C414.939 55.648 415.439 55.552 416.007 55.552C416.815 55.552 417.475 55.756 417.987 56.164C418.507 56.564 418.795 57.116 418.851 57.82H417.339C417.315 57.516 417.171 57.256 416.907 57.04C416.643 56.824 416.295 56.716 415.863 56.716C415.471 56.716 415.151 56.816 414.903 57.016C414.655 57.216 414.531 57.504 414.531 57.88C414.531 58.136 414.607 58.348 414.759 58.516C414.919 58.676 415.119 58.804 415.359 58.9C415.599 58.996 415.927 59.1 416.343 59.212C416.895 59.364 417.343 59.516 417.687 59.668C418.039 59.82 418.335 60.056 418.575 60.376C418.823 60.688 418.947 61.108 418.947 61.636C418.947 62.06 418.831 62.46 418.599 62.836C418.375 63.212 418.043 63.516 417.603 63.748C417.171 63.972 416.659 64.084 416.067 64.084ZM426.621 60.532C426.621 60.78 426.605 61.004 426.573 61.204H421.521C421.561 61.732 421.757 62.156 422.109 62.476C422.461 62.796 422.893 62.956 423.405 62.956C424.141 62.956 424.661 62.648 424.965 62.032H426.441C426.241 62.64 425.877 63.14 425.349 63.532C424.829 63.916 424.181 64.108 423.405 64.108C422.773 64.108 422.205 63.968 421.701 63.688C421.205 63.4 420.813 63 420.525 62.488C420.245 61.968 420.105 61.368 420.105 60.688C420.105 60.008 420.241 59.412 420.513 58.9C420.793 58.38 421.181 57.98 421.677 57.7C422.181 57.42 422.757 57.28 423.405 57.28C424.029 57.28 424.585 57.416 425.073 57.688C425.561 57.96 425.941 58.344 426.213 58.84C426.485 59.328 426.621 59.892 426.621 60.532ZM425.193 60.1C425.185 59.596 425.005 59.192 424.653 58.888C424.301 58.584 423.865 58.432 423.345 58.432C422.873 58.432 422.469 58.584 422.133 58.888C421.797 59.184 421.597 59.588 421.533 60.1H425.193ZM434.027 60.532C434.027 60.78 434.011 61.004 433.979 61.204H428.927C428.967 61.732 429.163 62.156 429.515 62.476C429.867 62.796 430.299 62.956 430.811 62.956C431.547 62.956 432.067 62.648 432.371 62.032H433.847C433.647 62.64 433.283 63.14 432.755 63.532C432.235 63.916 431.587 64.108 430.811 64.108C430.179 64.108 429.611 63.968 429.107 63.688C428.611 63.4 428.219 63 427.931 62.488C427.651 61.968 427.511 61.368 427.511 60.688C427.511 60.008 427.647 59.412 427.919 58.9C428.199 58.38 428.587 57.98 429.083 57.7C429.587 57.42 430.163 57.28 430.811 57.28C431.435 57.28 431.991 57.416 432.479 57.688C432.967 57.96 433.347 58.344 433.619 58.84C433.891 59.328 434.027 59.892 434.027 60.532ZM432.599 60.1C432.591 59.596 432.411 59.192 432.059 58.888C431.707 58.584 431.271 58.432 430.751 58.432C430.279 58.432 429.875 58.584 429.539 58.888C429.203 59.184 429.003 59.588 428.939 60.1H432.599ZM444.443 57.388L440.387 67.108H438.971L440.315 63.892L437.711 57.388H439.235L441.095 62.428L443.027 57.388H444.443ZM448.343 64.108C447.719 64.108 447.155 63.968 446.651 63.688C446.147 63.4 445.751 63 445.463 62.488C445.175 61.968 445.031 61.368 445.031 60.688C445.031 60.016 445.179 59.42 445.475 58.9C445.771 58.38 446.175 57.98 446.687 57.7C447.199 57.42 447.771 57.28 448.403 57.28C449.035 57.28 449.607 57.42 450.119 57.7C450.631 57.98 451.035 58.38 451.331 58.9C451.627 59.42 451.775 60.016 451.775 60.688C451.775 61.36 451.623 61.956 451.319 62.476C451.015 62.996 450.599 63.4 450.071 63.688C449.551 63.968 448.975 64.108 448.343 64.108ZM448.343 62.92C448.695 62.92 449.023 62.836 449.327 62.668C449.639 62.5 449.891 62.248 450.083 61.912C450.275 61.576 450.371 61.168 450.371 60.688C450.371 60.208 450.279 59.804 450.095 59.476C449.911 59.14 449.667 58.888 449.363 58.72C449.059 58.552 448.731 58.468 448.379 58.468C448.027 58.468 447.699 58.552 447.395 58.72C447.099 58.888 446.863 59.14 446.687 59.476C446.511 59.804 446.423 60.208 446.423 60.688C446.423 61.4 446.603 61.952 446.963 62.344C447.331 62.728 447.791 62.92 448.343 62.92ZM459.116 57.388V64H457.748V63.22C457.532 63.492 457.248 63.708 456.896 63.868C456.552 64.02 456.184 64.096 455.792 64.096C455.272 64.096 454.804 63.988 454.388 63.772C453.98 63.556 453.656 63.236 453.416 62.812C453.184 62.388 453.068 61.876 453.068 61.276V57.388H454.424V61.072C454.424 61.664 454.572 62.12 454.868 62.44C455.164 62.752 455.568 62.908 456.08 62.908C456.592 62.908 456.996 62.752 457.292 62.44C457.596 62.12 457.748 61.664 457.748 61.072V57.388H459.116ZM462.289 58.348C462.489 58.012 462.753 57.752 463.081 57.568C463.417 57.376 463.813 57.28 464.269 57.28V58.696H463.921C463.385 58.696 462.977 58.832 462.697 59.104C462.425 59.376 462.289 59.848 462.289 60.52V64H460.921V57.388H462.289V58.348ZM468.187 60.664C468.187 60 468.323 59.412 468.595 58.9C468.875 58.388 469.251 57.992 469.723 57.712C470.203 57.424 470.735 57.28 471.319 57.28C471.751 57.28 472.175 57.376 472.591 57.568C473.015 57.752 473.351 58 473.599 58.312V55.12H474.979V64H473.599V63.004C473.375 63.324 473.063 63.588 472.663 63.796C472.271 64.004 471.819 64.108 471.307 64.108C470.731 64.108 470.203 63.964 469.723 63.676C469.251 63.38 468.875 62.972 468.595 62.452C468.323 61.924 468.187 61.328 468.187 60.664ZM473.599 60.688C473.599 60.232 473.503 59.836 473.311 59.5C473.127 59.164 472.883 58.908 472.579 58.732C472.275 58.556 471.947 58.468 471.595 58.468C471.243 58.468 470.915 58.556 470.611 58.732C470.307 58.9 470.059 59.152 469.867 59.488C469.683 59.816 469.591 60.208 469.591 60.664C469.591 61.12 469.683 61.52 469.867 61.864C470.059 62.208 470.307 62.472 470.611 62.656C470.923 62.832 471.251 62.92 471.595 62.92C471.947 62.92 472.275 62.832 472.579 62.656C472.883 62.48 473.127 62.224 473.311 61.888C473.503 61.544 473.599 61.144 473.599 60.688ZM482.836 60.532C482.836 60.78 482.82 61.004 482.788 61.204H477.736C477.776 61.732 477.972 62.156 478.324 62.476C478.676 62.796 479.108 62.956 479.62 62.956C480.356 62.956 480.876 62.648 481.18 62.032H482.656C482.456 62.64 482.092 63.14 481.564 63.532C481.044 63.916 480.396 64.108 479.62 64.108C478.988 64.108 478.42 63.968 477.916 63.688C477.42 63.4 477.028 63 476.74 62.488C476.46 61.968 476.32 61.368 476.32 60.688C476.32 60.008 476.456 59.412 476.728 58.9C477.008 58.38 477.396 57.98 477.892 57.7C478.396 57.42 478.972 57.28 479.62 57.28C480.244 57.28 480.8 57.416 481.288 57.688C481.776 57.96 482.156 58.344 482.428 58.84C482.7 59.328 482.836 59.892 482.836 60.532ZM481.408 60.1C481.4 59.596 481.22 59.192 480.868 58.888C480.516 58.584 480.08 58.432 479.56 58.432C479.088 58.432 478.684 58.584 478.348 58.888C478.012 59.184 477.812 59.588 477.748 60.1H481.408ZM486.738 62.776L488.61 57.388H490.062L487.542 64H485.91L483.402 57.388H484.866L486.738 62.776ZM491.792 56.512C491.544 56.512 491.336 56.428 491.168 56.26C491 56.092 490.916 55.884 490.916 55.636C490.916 55.388 491 55.18 491.168 55.012C491.336 54.844 491.544 54.76 491.792 54.76C492.032 54.76 492.236 54.844 492.404 55.012C492.572 55.18 492.656 55.388 492.656 55.636C492.656 55.884 492.572 56.092 492.404 56.26C492.236 56.428 492.032 56.512 491.792 56.512ZM492.464 57.388V64H491.096V57.388H492.464ZM493.804 60.688C493.804 60.008 493.94 59.412 494.212 58.9C494.492 58.38 494.876 57.98 495.364 57.7C495.852 57.42 496.412 57.28 497.044 57.28C497.844 57.28 498.504 57.472 499.024 57.856C499.552 58.232 499.908 58.772 500.092 59.476H498.616C498.496 59.148 498.304 58.892 498.04 58.708C497.776 58.524 497.444 58.432 497.044 58.432C496.484 58.432 496.036 58.632 495.7 59.032C495.372 59.424 495.208 59.976 495.208 60.688C495.208 61.4 495.372 61.956 495.7 62.356C496.036 62.756 496.484 62.956 497.044 62.956C497.836 62.956 498.36 62.608 498.616 61.912H500.092C499.9 62.584 499.54 63.12 499.012 63.52C498.484 63.912 497.828 64.108 497.044 64.108C496.412 64.108 495.852 63.968 495.364 63.688C494.876 63.4 494.492 63 494.212 62.488C493.94 61.968 493.804 61.368 493.804 60.688ZM507.516 60.532C507.516 60.78 507.5 61.004 507.468 61.204H502.416C502.456 61.732 502.652 62.156 503.004 62.476C503.356 62.796 503.788 62.956 504.3 62.956C505.036 62.956 505.556 62.648 505.86 62.032H507.336C507.136 62.64 506.772 63.14 506.244 63.532C505.724 63.916 505.076 64.108 504.3 64.108C503.668 64.108 503.1 63.968 502.596 63.688C502.1 63.4 501.708 63 501.42 62.488C501.14 61.968 501 61.368 501 60.688C501 60.008 501.136 59.412 501.408 58.9C501.688 58.38 502.076 57.98 502.572 57.7C503.076 57.42 503.652 57.28 504.3 57.28C504.924 57.28 505.48 57.416 505.968 57.688C506.456 57.96 506.836 58.344 507.108 58.84C507.38 59.328 507.516 59.892 507.516 60.532ZM506.088 60.1C506.08 59.596 505.9 59.192 505.548 58.888C505.196 58.584 504.76 58.432 504.24 58.432C503.768 58.432 503.364 58.584 503.028 58.888C502.692 59.184 502.492 59.588 502.428 60.1H506.088ZM512.675 56.512C512.427 56.512 512.219 56.428 512.051 56.26C511.883 56.092 511.799 55.884 511.799 55.636C511.799 55.388 511.883 55.18 512.051 55.012C512.219 54.844 512.427 54.76 512.675 54.76C512.915 54.76 513.119 54.844 513.287 55.012C513.455 55.18 513.539 55.388 513.539 55.636C513.539 55.884 513.455 56.092 513.287 56.26C513.119 56.428 512.915 56.512 512.675 56.512ZM513.347 57.388V64H511.979V57.388H513.347ZM518.479 57.28C518.999 57.28 519.463 57.388 519.871 57.604C520.287 57.82 520.611 58.14 520.843 58.564C521.075 58.988 521.191 59.5 521.191 60.1V64H519.835V60.304C519.835 59.712 519.687 59.26 519.391 58.948C519.095 58.628 518.691 58.468 518.179 58.468C517.667 58.468 517.259 58.628 516.955 58.948C516.659 59.26 516.511 59.712 516.511 60.304V64H515.143V57.388H516.511V58.144C516.735 57.872 517.019 57.66 517.363 57.508C517.715 57.356 518.087 57.28 518.479 57.28Z" fill="white"/>
</svg>
