<svg width="695" height="112" viewBox="0 0 695 112" fill="none" xmlns="http://www.w3.org/2000/svg">
<path d="M134.5 52.6904L134.477 112H127.715L127.5 59.4523V52.6904H131H132.75H134.5Z" fill="#9FEF00"/>
<circle cx="131.072" cy="49.0716" r="6.08571" fill="#9FEF00"/>
<circle cx="131.071" cy="49.0713" r="4.05714" fill="#111927"/>
<path d="M81.3821 14.2273L79.6464 22.751L78.1043 22.8859L75.8088 16.7507L74.506 23.2008L72.9769 23.3466L69.894 15.2324L71.3405 15.1058L73.6539 21.7214L74.9268 14.7921L76.4569 14.6582L78.7791 21.2369L79.9237 14.3549L81.3821 14.2273ZM84.1032 16.6875C84.2731 16.3354 84.5135 16.0534 84.8242 15.8415C85.1422 15.6209 85.5283 15.4908 85.9826 15.451L86.106 16.8616L85.7593 16.892C85.2253 16.9387 84.8307 17.1097 84.5755 17.4051C84.3283 17.6998 84.2339 18.1818 84.2925 18.8513L84.5958 22.318L83.233 22.4372L82.6567 15.8504L84.0195 15.7312L84.1032 16.6875ZM87.8617 14.5157C87.6146 14.5373 87.4001 14.4717 87.2181 14.319C87.0361 14.1663 86.9343 13.9664 86.9126 13.7194C86.891 13.4723 86.9566 13.2578 87.1093 13.0758C87.262 12.8938 87.4619 12.792 87.709 12.7704C87.948 12.7494 88.1586 12.8153 88.3406 12.9681C88.5226 13.1208 88.6244 13.3207 88.646 13.5677C88.6676 13.8148 88.6021 14.0293 88.4494 14.2113C88.2966 14.3933 88.1007 14.4948 87.8617 14.5157ZM88.6074 15.3298L89.1837 21.9166L87.8209 22.0359L87.2447 15.449L88.6074 15.3298ZM92.0839 16.1459L92.4029 19.792C92.4245 20.039 92.4959 20.2135 92.6173 20.3153C92.7459 20.4084 92.9497 20.4428 93.2286 20.4184L94.0654 20.3452L94.1648 21.4808L93.0889 21.575C92.4752 21.6287 91.9925 21.5263 91.6406 21.268C91.2888 21.0097 91.0846 20.5578 91.0281 19.9122L90.7091 16.2662L89.9321 16.3342L89.8348 15.2224L90.6119 15.1544L90.4686 13.5167L91.8433 13.3964L91.9866 15.0341L93.5885 14.894L93.6858 16.0058L92.0839 16.1459ZM101.155 17.388C101.177 17.635 101.181 17.8596 101.166 18.0616L96.1335 18.5019C96.2193 19.0244 96.4515 19.4297 96.8301 19.7178C97.2086 20.0059 97.6529 20.1277 98.163 20.0831C98.8962 20.0189 99.3874 19.6668 99.6365 19.0266L101.107 18.898C100.961 19.5211 100.642 20.0509 100.15 20.4874C99.6652 20.9153 99.0364 21.163 98.2634 21.2307C97.6338 21.2858 97.0558 21.1958 96.5293 20.9608C96.0101 20.7171 95.5847 20.3528 95.2532 19.8678C94.9289 19.3742 94.7371 18.7887 94.6779 18.1113C94.6186 17.4339 94.7022 16.8283 94.9285 16.2945C95.1621 15.7521 95.5138 15.3198 95.9835 14.9977C96.4612 14.6748 97.0228 14.4851 97.6683 14.4287C98.2899 14.3743 98.8557 14.4613 99.3655 14.6897C99.8754 14.9182 100.287 15.2676 100.602 15.738C100.915 16.2004 101.1 16.7504 101.155 17.388ZM99.6953 17.0821C99.6434 16.5807 99.4288 16.1939 99.0517 15.9218C98.6745 15.6496 98.2269 15.5362 97.7089 15.5815C97.2387 15.6226 96.8495 15.8093 96.5413 16.1414C96.2324 16.4656 96.0683 16.8854 96.0492 17.4011L99.6953 17.0821ZM109.321 12.8912L109.535 15.3299L112.404 15.0788L112.501 16.1906L109.632 16.4416L109.855 18.9879L113.082 18.7055L113.18 19.8172L108.589 20.2189L107.861 11.8986L112.452 11.497L112.549 12.6088L109.321 12.8912ZM114.113 16.3868C114.055 15.7254 114.14 15.1277 114.366 14.594C114.6 14.0595 114.94 13.6323 115.386 13.3122C115.839 12.9835 116.357 12.7936 116.938 12.7427C117.369 12.7051 117.8 12.7638 118.231 12.9188C118.669 13.0651 119.025 13.2829 119.3 13.5721L119.021 10.3922L120.396 10.272L121.17 19.1182L119.795 19.2384L119.709 18.2462C119.513 18.5845 119.226 18.8747 118.845 19.1168C118.473 19.3582 118.032 19.5012 117.522 19.5458C116.948 19.596 116.409 19.4986 115.906 19.2535C115.41 18.9998 115 18.6261 114.676 18.1325C114.359 17.6302 114.171 17.0483 114.113 16.3868ZM119.507 15.9391C119.467 15.4848 119.337 15.0987 119.116 14.7807C118.904 14.462 118.638 14.2282 118.32 14.0794C118.002 13.9306 117.668 13.8715 117.317 13.9022C116.966 13.9328 116.647 14.0491 116.36 14.2509C116.071 14.4448 115.846 14.7174 115.684 15.0689C115.53 15.4117 115.472 15.8102 115.512 16.2645C115.552 16.7187 115.678 17.1092 115.891 17.4358C116.113 17.7618 116.383 18.0032 116.702 18.16C117.028 18.3081 117.362 18.3672 117.705 18.3372C118.056 18.3065 118.375 18.1903 118.662 17.9885C118.95 17.7866 119.17 17.5103 119.324 17.1596C119.486 16.8002 119.547 16.3933 119.507 15.9391ZM123.001 11.4414C122.754 11.463 122.539 11.3975 122.357 11.2447C122.175 11.092 122.073 10.8921 122.052 10.6451C122.03 10.398 122.096 10.1835 122.249 10.0015C122.401 9.81949 122.601 9.71768 122.848 9.69607C123.087 9.67515 123.298 9.74105 123.48 9.89377C123.662 10.0465 123.764 10.2464 123.785 10.4934C123.807 10.7405 123.741 10.955 123.589 11.137C123.436 11.319 123.24 11.4205 123.001 11.4414ZM123.747 12.2555L124.323 18.8423L122.96 18.9616L122.384 12.3747L123.747 12.2555ZM127.223 13.0716L127.542 16.7177C127.564 16.9647 127.635 17.1392 127.756 17.241C127.885 17.3341 128.089 17.3685 128.368 17.3441L129.205 17.2709L129.304 18.4066L128.228 18.5007C127.614 18.5544 127.132 18.4521 126.78 18.1937C126.428 17.9354 126.224 17.4835 126.167 16.838L125.848 13.1919L125.071 13.2599L124.974 12.1481L125.751 12.0801L125.608 10.4424L126.983 10.3221L127.126 11.9599L128.728 11.8197L128.825 12.9315L127.223 13.0716ZM146.489 8.53122L146.952 13.827C147.007 14.4566 147.212 14.9165 147.567 15.2067C147.929 15.4962 148.405 15.6151 148.995 15.5635C149.593 15.5112 150.041 15.3114 150.34 14.964C150.647 14.616 150.773 14.1271 150.718 13.4975L150.254 8.20177L151.617 8.08254L152.078 13.3544C152.138 14.0318 152.04 14.6185 151.787 15.1145C151.533 15.6105 151.169 15.9957 150.695 16.2701C150.221 16.5444 149.686 16.7077 149.088 16.76C148.49 16.8123 147.934 16.7445 147.42 16.5566C146.913 16.368 146.496 16.0512 146.168 15.6061C145.84 15.161 145.646 14.5997 145.587 13.9223L145.126 8.65045L146.489 8.53122ZM154.99 10.4978C155.194 10.1747 155.487 9.89217 155.867 9.6501C156.248 9.40803 156.689 9.26503 157.191 9.22111C157.765 9.1709 158.299 9.26869 158.794 9.51445C159.297 9.75155 159.706 10.1133 160.022 10.5996C160.337 11.086 160.524 11.6599 160.582 12.3213C160.64 12.9828 160.556 13.5884 160.331 14.1381C160.106 14.6798 159.767 15.119 159.314 15.4558C158.869 15.7838 158.36 15.9729 157.786 16.0231C157.284 16.067 156.829 16.0065 156.421 15.8414C156.012 15.6684 155.671 15.4412 155.398 15.16L155.755 19.2484L154.392 19.3676L153.542 9.64873L154.905 9.5295L154.99 10.4978ZM159.195 12.4427C159.155 11.9884 159.026 11.6063 158.806 11.2962C158.593 10.9776 158.324 10.7481 157.999 10.608C157.681 10.4591 157.346 10.4001 156.995 10.4307C156.653 10.4607 156.334 10.577 156.038 10.7795C155.751 10.9813 155.526 11.258 155.364 11.6094C155.21 11.9602 155.153 12.3627 155.193 12.8169C155.232 13.2712 155.359 13.6617 155.572 13.9883C155.793 14.3063 156.062 14.5397 156.38 14.6886C156.706 14.8367 157.041 14.8958 157.384 14.8658C157.734 14.8351 158.053 14.7189 158.341 14.517C158.636 14.3065 158.86 14.0219 159.013 13.6632C159.174 13.3038 159.235 12.8969 159.195 12.4427ZM162.809 6.56131L163.583 15.4075L162.22 15.5267L161.446 6.68054L162.809 6.56131ZM168.239 15.1086C167.617 15.163 167.043 15.0727 166.517 14.8377C165.99 14.5947 165.56 14.2307 165.229 13.7458C164.896 13.2529 164.701 12.6677 164.641 11.9903C164.583 11.3208 164.678 10.7142 164.928 10.1704C165.177 9.62657 165.545 9.19288 166.031 8.86932C166.516 8.54576 167.074 8.35644 167.704 8.30136C168.333 8.24628 168.915 8.33589 169.45 8.5702C169.984 8.80451 170.421 9.16778 170.762 9.66001C171.102 10.1522 171.301 10.7331 171.36 11.4025C171.418 12.0719 171.319 12.6789 171.061 13.2234C170.804 13.768 170.425 14.2067 169.924 14.5396C169.43 14.8639 168.868 15.0535 168.239 15.1086ZM168.135 13.9251C168.486 13.8945 168.805 13.7822 169.094 13.5883C169.39 13.3938 169.619 13.1208 169.781 12.7693C169.943 12.4179 170.003 12.003 169.961 11.5249C169.919 11.0467 169.792 10.6523 169.58 10.3415C169.368 10.0229 169.103 9.79308 168.785 9.65221C168.468 9.51135 168.134 9.45625 167.783 9.48693C167.432 9.51761 167.113 9.62988 166.825 9.82373C166.545 10.0169 166.331 10.2885 166.185 10.6386C166.039 10.9807 165.986 11.3908 166.028 11.869C166.09 12.5783 166.318 13.1125 166.71 13.4716C167.11 13.8221 167.585 13.9732 168.135 13.9251ZM172.251 11.3005C172.193 10.639 172.277 10.0414 172.503 9.50763C172.738 8.97317 173.078 8.54591 173.523 8.22584C173.977 7.8971 174.49 7.70763 175.064 7.65743C175.582 7.6121 176.041 7.67631 176.442 7.85005C176.85 8.01513 177.183 8.23898 177.44 8.5216L177.356 7.56525L178.731 7.44498L179.307 14.0318L177.933 14.1521L177.847 13.1718C177.643 13.5029 177.351 13.7894 176.971 14.0315C176.59 14.2736 176.145 14.4169 175.635 14.4615C175.069 14.511 174.539 14.4129 174.043 14.1671C173.547 13.9134 173.137 13.5397 172.813 13.0461C172.496 12.5438 172.308 11.9619 172.251 11.3005ZM177.644 10.8527C177.604 10.3984 177.474 10.0123 177.254 9.69432C177.041 9.37563 176.776 9.14187 176.457 8.99304C176.139 8.8442 175.805 8.78512 175.454 8.8158C175.104 8.84648 174.784 8.96273 174.497 9.16456C174.209 9.35842 173.984 9.63107 173.822 9.98253C173.667 10.3253 173.609 10.7238 173.649 11.1781C173.689 11.6324 173.815 12.0228 174.029 12.3495C174.25 12.6754 174.52 12.9168 174.839 13.0736C175.165 13.2218 175.5 13.2808 175.842 13.2509C176.193 13.2202 176.512 13.1039 176.799 12.9021C177.087 12.7003 177.308 12.424 177.462 12.0732C177.623 11.7138 177.684 11.307 177.644 10.8527ZM180.352 10.5917C180.295 9.93018 180.379 9.33256 180.605 8.79881C180.839 8.26435 181.179 7.83709 181.625 7.51701C182.078 7.18828 182.596 6.99846 183.178 6.94756C183.608 6.90991 184.039 6.96859 184.47 7.1236C184.908 7.26995 185.265 7.48772 185.539 7.77692L185.261 4.59706L186.635 4.47679L187.409 13.323L186.035 13.4433L185.948 12.4511C185.753 12.7894 185.465 13.0796 185.084 13.3216C184.712 13.563 184.271 13.706 183.761 13.7506C183.187 13.8008 182.648 13.7034 182.145 13.4583C181.649 13.2046 181.239 12.8309 180.915 12.3373C180.598 11.835 180.41 11.2531 180.352 10.5917ZM185.746 10.1439C185.706 9.68961 185.576 9.30348 185.355 8.9855C185.143 8.66681 184.878 8.43305 184.559 8.28422C184.241 8.13538 183.907 8.0763 183.556 8.10698C183.205 8.13766 182.886 8.25391 182.599 8.45574C182.311 8.64959 182.086 8.92225 181.924 9.27371C181.769 9.61649 181.711 10.015 181.751 10.4693C181.791 10.9236 181.917 11.314 182.131 11.6407C182.352 11.9666 182.622 12.208 182.941 12.3648C183.267 12.5129 183.601 12.572 183.944 12.542C184.295 12.5114 184.614 12.3951 184.901 12.1933C185.189 11.9915 185.41 11.7152 185.564 11.3644C185.725 11.005 185.786 10.5981 185.746 10.1439Z" fill="#9FEF00"/>
<path d="M104.15 18.957L102.992 22.3829L102.107 22.4603L102.668 19.0867L104.15 18.957ZM140.085 17.4634L138.967 16.5252C138.603 16.9586 138.195 17.2954 137.742 17.5358C137.289 17.7682 136.771 17.9099 136.189 17.9608C135.6 18.0124 135.069 17.9544 134.596 17.787C134.124 17.6195 133.747 17.3553 133.467 16.9944C133.186 16.6255 133.023 16.186 132.978 15.676C132.928 15.1021 133.047 14.5778 133.334 14.1029C133.621 13.6201 134.076 13.2189 134.699 12.8994C134.443 12.6407 134.257 12.396 134.14 12.1653C134.023 11.9266 133.952 11.6598 133.926 11.3649C133.894 10.9983 133.957 10.6636 134.115 10.3606C134.281 10.057 134.532 9.80615 134.868 9.60811C135.204 9.41007 135.603 9.29083 136.066 9.25039C136.536 9.20925 136.942 9.26604 137.285 9.42075C137.635 9.5668 137.904 9.78825 138.09 10.0851C138.285 10.3813 138.383 10.722 138.384 11.1074L137.022 11.2266C137.004 10.931 136.912 10.7102 136.747 10.564C136.581 10.4099 136.366 10.3444 136.103 10.3674C135.84 10.3904 135.632 10.4889 135.479 10.6629C135.332 10.8283 135.269 11.0226 135.289 11.2457C135.307 11.4609 135.386 11.6708 135.524 11.8756C135.67 12.0716 135.913 12.3234 136.253 12.6309L138.644 14.6261L139.37 13.1532L140.841 13.0246L139.926 14.9597L139.67 15.4759L141.866 17.3075L140.085 17.4634ZM136.088 16.8012C136.837 16.7356 137.472 16.3709 137.992 15.7071L135.599 13.688C134.691 14.1448 134.27 14.7518 134.337 15.5089C134.372 15.9154 134.554 16.2448 134.881 16.4972C135.207 16.7417 135.61 16.843 136.088 16.8012ZM82.2463 32.2205L79.9601 37.7568L80.2237 40.7693L78.8609 40.8885L78.5973 37.876L75.3725 32.8218L76.8907 32.689L79.172 36.5971L80.74 32.3523L82.2463 32.2205ZM86.9211 40.2917C86.2995 40.3461 85.7255 40.2558 85.199 40.0208C84.6718 39.7778 84.2424 39.4139 83.9109 38.9289C83.5787 38.436 83.3829 37.8508 83.3237 37.1734C83.2651 36.504 83.3606 35.8973 83.6101 35.3535C83.8597 34.8097 84.2273 34.376 84.7129 34.0525C85.1986 33.7289 85.7562 33.5396 86.3858 33.4845C87.0154 33.4294 87.5974 33.519 88.1319 33.7533C88.6663 33.9877 89.1037 34.3509 89.4439 34.8431C89.7841 35.3354 89.9834 35.9162 90.042 36.5856C90.1006 37.2551 90.0011 37.8621 89.7436 38.4066C89.4861 38.9511 89.1069 39.3898 88.606 39.7227C88.1123 40.047 87.5507 40.2367 86.9211 40.2917ZM86.8176 39.1083C87.1683 39.0776 87.4877 38.9653 87.7759 38.7715C88.0721 38.5769 88.3011 38.3039 88.4631 37.9524C88.6251 37.601 88.6852 37.1862 88.6434 36.708C88.6015 36.2298 88.4747 35.8354 88.2628 35.5247C88.0502 35.206 87.7852 34.9762 87.4677 34.8353C87.1502 34.6945 86.8161 34.6394 86.4654 34.6701C86.1148 34.7007 85.7954 34.813 85.5072 35.0069C85.2269 35.2 85.0138 35.4716 84.8677 35.8217C84.721 36.1638 84.6685 36.5739 84.7104 37.0521C84.7724 37.7614 84.9999 38.2956 85.3927 38.6547C85.7927 39.0052 86.2677 39.1564 86.8176 39.1083ZM97.0668 32.6584L97.6431 39.2453L96.2803 39.3645L96.2123 38.5875C96.0208 38.8773 95.7567 39.1172 95.42 39.3073C95.0906 39.4887 94.7306 39.5965 94.3401 39.6306C93.8221 39.6759 93.3464 39.6091 92.9132 39.4302C92.4879 39.2506 92.1373 38.9601 91.8612 38.5586C91.5932 38.1564 91.433 37.6565 91.3807 37.0588L91.0418 33.1856L92.3927 33.0674L92.7137 36.7374C92.7653 37.3271 92.9525 37.7685 93.2753 38.0615C93.5973 38.3465 94.0134 38.4667 94.5235 38.422C95.0335 38.3774 95.4224 38.1868 95.6901 37.8502C95.965 37.5049 96.0767 37.0374 96.0251 36.4477L95.704 32.7777L97.0668 32.6584ZM100.311 33.3382C100.481 32.9861 100.722 32.7041 101.032 32.4922C101.35 32.2716 101.736 32.1415 102.191 32.1017L102.314 33.5124L101.967 33.5427C101.434 33.5894 101.039 33.7604 100.784 34.0558C100.536 34.3505 100.442 34.8325 100.501 35.502L100.804 38.9687L99.4412 39.088L98.8649 32.5011L100.228 32.3819L100.311 33.3382ZM111.995 36.2792L108.516 36.5835L108.067 38.3333L106.644 38.4578L108.893 29.8771L110.471 29.7391L114.176 37.7989L112.741 37.9244L111.995 36.2792ZM111.515 35.2009L109.826 31.4578L108.801 35.4383L111.515 35.2009ZM116.34 31.9359C116.51 31.5838 116.75 31.3018 117.061 31.0899C117.379 30.8693 117.765 30.7392 118.219 30.6994L118.343 32.11L117.996 32.1404C117.462 32.1871 117.068 32.3581 116.812 32.6535C116.565 32.9482 116.471 33.4302 116.529 34.0997L116.833 37.5664L115.47 37.6856L114.894 31.0988L116.256 30.9796L116.34 31.9359ZM119.313 34.0007C119.255 33.3392 119.339 32.7416 119.565 32.2078C119.8 31.6734 120.14 31.2461 120.586 30.9261C121.039 30.5973 121.556 30.4075 122.138 30.3566C122.568 30.3189 122.999 30.3776 123.43 30.5326C123.869 30.679 124.225 30.8968 124.499 31.186L124.221 28.0061L125.596 27.8858L126.37 36.732L124.995 36.8523L124.908 35.8601C124.713 36.1984 124.425 36.4886 124.045 36.7307C123.672 36.972 123.231 37.115 122.721 37.1597C122.147 37.2099 121.609 37.1124 121.105 36.8674C120.609 36.6136 120.199 36.2399 119.875 35.7463C119.558 35.244 119.371 34.6622 119.313 34.0007ZM124.706 33.5529C124.666 33.0986 124.536 32.7125 124.316 32.3945C124.103 32.0759 123.838 31.8421 123.52 31.6933C123.201 31.5444 122.867 31.4853 122.516 31.516C122.166 31.5467 121.847 31.663 121.559 31.8648C121.271 32.0586 121.046 32.3313 120.884 32.6827C120.729 33.0255 120.672 33.4241 120.711 33.8783C120.751 34.3326 120.878 34.723 121.091 35.0497C121.312 35.3757 121.582 35.617 121.901 35.7738C122.227 35.922 122.562 35.9811 122.904 35.9511C123.255 35.9204 123.574 35.8041 123.862 35.6023C124.149 35.4005 124.37 35.1242 124.524 34.7734C124.685 34.414 124.746 34.0072 124.706 33.5529ZM133.549 29.4667L134.125 36.0535L132.762 36.1728L132.694 35.3957C132.503 35.6855 132.238 35.9255 131.902 36.1155C131.572 36.2969 131.212 36.4047 130.822 36.4389C130.304 36.4842 129.828 36.4174 129.395 36.2385C128.97 36.0589 128.619 35.7683 128.343 35.3669C128.075 34.9647 127.915 34.4647 127.862 33.867L127.524 29.9938L128.874 29.8756L129.195 33.5456C129.247 34.1354 129.434 34.5767 129.757 34.8697C130.079 35.1547 130.495 35.2749 131.005 35.2303C131.515 35.1857 131.904 34.9951 132.172 34.6585C132.447 34.3132 132.558 33.8457 132.507 33.2559L132.186 29.5859L133.549 29.4667ZM135.964 28.3761C135.717 28.3977 135.502 28.3321 135.32 28.1794C135.138 28.0267 135.036 27.8268 135.015 27.5797C134.993 27.3327 135.059 27.1182 135.211 26.9362C135.364 26.7542 135.564 26.6523 135.811 26.6307C136.05 26.6098 136.261 26.6757 136.443 26.8284C136.625 26.9812 136.726 27.181 136.748 27.4281C136.77 27.6752 136.704 27.8897 136.551 28.0717C136.399 28.2537 136.203 28.3551 135.964 28.3761ZM136.709 29.1902L137.286 35.777L135.923 35.8962L135.347 29.3094L136.709 29.1902ZM141.813 28.6353C142.331 28.59 142.802 28.6571 143.228 28.8367C143.661 29.0157 144.011 29.3062 144.279 29.7084C144.548 30.1105 144.708 30.6105 144.76 31.2082L145.1 35.0933L143.749 35.2115L143.427 31.5296C143.375 30.9398 143.189 30.5025 142.866 30.2175C142.544 29.9245 142.127 29.8003 141.617 29.8449C141.107 29.8895 140.715 30.0845 140.44 30.4298C140.172 30.7664 140.064 31.2296 140.116 31.8193L140.438 35.5012L139.075 35.6205L138.499 29.0336L139.861 28.9144L139.927 29.6675C140.127 29.377 140.391 29.1411 140.721 28.9597C141.058 28.7776 141.422 28.6694 141.813 28.6353ZM149.705 34.7989C149.083 34.8533 148.509 34.763 147.983 34.528C147.455 34.285 147.026 33.921 146.695 33.4361C146.362 32.9431 146.167 32.358 146.107 31.6806C146.049 31.0111 146.144 30.4045 146.394 29.8607C146.643 29.3169 147.011 28.8832 147.497 28.5596C147.982 28.236 148.54 28.0467 149.169 27.9916C149.799 27.9366 150.381 28.0262 150.916 28.2605C151.45 28.4948 151.887 28.8581 152.227 29.3503C152.568 29.8425 152.767 30.4233 152.826 31.0928C152.884 31.7622 152.785 32.3692 152.527 32.9137C152.27 33.4582 151.89 33.897 151.39 34.2299C150.896 34.5541 150.334 34.7438 149.705 34.7989ZM149.601 33.6154C149.952 33.5847 150.271 33.4725 150.56 33.2786C150.856 33.0841 151.085 32.8111 151.247 32.4596C151.409 32.1081 151.469 31.6933 151.427 31.2152C151.385 30.737 151.258 30.3425 151.046 30.0318C150.834 29.7131 150.569 29.4834 150.251 29.3425C149.934 29.2016 149.6 29.1465 149.249 29.1772C148.898 29.2079 148.579 29.3202 148.291 29.514C148.011 29.7072 147.797 29.9788 147.651 30.3288C147.505 30.6709 147.452 31.0811 147.494 31.5592C147.556 32.2685 147.783 32.8027 148.176 33.1619C148.576 33.5123 149.051 33.6635 149.601 33.6154ZM156.748 29.8703C156.676 29.0574 156.8 28.3118 157.118 27.6335C157.444 26.9545 157.914 26.4075 158.528 25.9924C159.15 25.5686 159.847 25.3229 160.62 25.2552C161.505 25.1778 162.309 25.3283 163.033 25.7067C163.764 26.0764 164.319 26.6461 164.7 27.4159L163.062 27.5592C162.809 27.1397 162.481 26.8391 162.08 26.6574C161.678 26.4756 161.227 26.4067 160.725 26.4507C160.175 26.4988 159.695 26.6652 159.287 26.9499C158.878 27.2346 158.57 27.6189 158.364 28.1027C158.165 28.5859 158.093 29.1343 158.146 29.7479C158.2 30.3616 158.366 30.8891 158.646 31.3304C158.934 31.771 159.304 32.1 159.756 32.3174C160.208 32.5268 160.709 32.6075 161.259 32.5593C161.761 32.5154 162.194 32.3691 162.558 32.1205C162.921 31.8718 163.192 31.5189 163.369 31.0618L165.006 30.9185C164.765 31.7427 164.317 32.4002 163.661 32.8913C163.013 33.3816 162.247 33.6654 161.363 33.7428C160.582 33.8112 159.853 33.6942 159.176 33.3921C158.498 33.082 157.94 32.6209 157.501 32.0088C157.07 31.396 156.819 30.6832 156.748 29.8703ZM169.679 33.0513C169.058 33.1057 168.484 33.0154 167.957 32.7804C167.43 32.5374 167.001 32.1735 166.669 31.6885C166.337 31.1956 166.141 30.6104 166.082 29.933C166.023 29.2636 166.119 28.6569 166.368 28.1131C166.618 27.5693 166.985 27.1356 167.471 26.8121C167.957 26.4885 168.514 26.2992 169.144 26.2441C169.774 26.189 170.356 26.2786 170.89 26.5129C171.424 26.7473 171.862 27.1105 172.202 27.6027C172.542 28.095 172.742 28.6758 172.8 29.3452C172.859 30.0147 172.759 30.6217 172.502 31.1662C172.244 31.7107 171.865 32.1494 171.364 32.4823C170.87 32.8066 170.309 32.9963 169.679 33.0513ZM169.576 31.8679C169.926 31.8372 170.246 31.7249 170.534 31.5311C170.83 31.3365 171.059 31.0635 171.221 30.7121C171.383 30.3606 171.443 29.9458 171.401 29.4676C171.36 28.9894 171.233 28.595 171.021 28.2843C170.808 27.9656 170.543 27.7358 170.226 27.595C169.908 27.4541 169.574 27.399 169.224 27.4297C168.873 27.4604 168.553 27.5726 168.265 27.7665C167.985 27.9596 167.772 28.2312 167.626 28.5813C167.479 28.9234 167.427 29.3335 167.468 29.8117C167.531 30.521 167.758 31.0552 168.151 31.4143C168.551 31.7648 169.026 31.916 169.576 31.8679ZM173.691 29.2432C173.633 28.5817 173.717 27.9841 173.944 27.4504C174.178 26.9159 174.518 26.4886 174.964 26.1686C175.417 25.8398 175.934 25.65 176.516 25.5991C176.946 25.5615 177.377 25.6201 177.808 25.7752C178.247 25.9215 178.603 26.1393 178.877 26.4285L178.599 23.2486L179.974 23.1283L180.748 31.9746L179.373 32.0948L179.286 31.1026C179.091 31.4409 178.803 31.7311 178.423 31.9732C178.051 32.2146 177.609 32.3576 177.099 32.4022C176.525 32.4524 175.987 32.355 175.484 32.1099C174.988 31.8561 174.577 31.4825 174.253 30.9889C173.936 30.4866 173.749 29.9047 173.691 29.2432ZM179.084 28.7954C179.045 28.3412 178.915 27.955 178.694 27.6371C178.481 27.3184 178.216 27.0846 177.898 26.9358C177.58 26.7869 177.245 26.7279 176.895 26.7585C176.544 26.7892 176.225 26.9055 175.937 27.1073C175.649 27.3012 175.424 27.5738 175.262 27.9253C175.107 28.2681 175.05 28.6666 175.09 29.1208C175.129 29.5751 175.256 29.9656 175.469 30.2922C175.69 30.6182 175.96 30.8596 176.279 31.0164C176.605 31.1645 176.94 31.2236 177.283 31.1936C177.633 31.1629 177.952 31.0467 178.24 30.8448C178.527 30.643 178.748 30.3667 178.902 30.016C179.063 29.6565 179.124 29.2497 179.084 28.7954ZM188.273 27.835C188.294 28.082 188.298 28.3066 188.283 28.5086L183.25 28.9489C183.336 29.4714 183.569 29.8767 183.947 30.1648C184.326 30.4529 184.77 30.5747 185.28 30.5301C186.013 30.4659 186.504 30.1138 186.754 29.4736L188.224 29.345C188.078 29.9681 187.759 30.4979 187.267 30.9344C186.782 31.3623 186.153 31.61 185.38 31.6777C184.751 31.7328 184.173 31.6428 183.646 31.4078C183.127 31.1641 182.702 30.7998 182.37 30.3148C182.046 29.8212 181.854 29.2357 181.795 28.5583C181.736 27.8809 181.819 27.2753 182.046 26.7415C182.279 26.1991 182.631 25.7668 183.101 25.4447C183.578 25.1218 184.14 24.9321 184.785 24.8757C185.407 24.8213 185.973 24.9083 186.483 25.1367C186.992 25.3652 187.404 25.7146 187.719 26.185C188.032 26.6474 188.217 27.1974 188.273 27.835ZM186.812 27.5291C186.76 27.0277 186.546 26.6409 186.169 26.3688C185.792 26.0966 185.344 25.9832 184.826 26.0285C184.356 26.0696 183.967 26.2563 183.658 26.5884C183.349 26.9126 183.185 27.3325 183.166 27.8481L186.812 27.5291Z" fill="white"/>
</svg>
