<svg width="24" height="24" viewBox="0 0 24 24" fill="currentColor" xmlns="http://www.w3.org/2000/svg" >
<path d="M8.25 1.125C8.25 0.501562 7.74844 0 7.125 0C6.50156 0 6 0.501562 6 1.125V3C4.34531 3 3 4.34531 3 6H1.125C0.501562 6 0 6.50156 0 7.125C0 7.74844 0.501562 8.25 1.125 8.25H3V10.875H1.125C0.501562 10.875 0 11.3766 0 12C0 12.6234 0.501562 13.125 1.125 13.125H3V15.75H1.125C0.501562 15.75 0 16.2516 0 16.875C0 17.4984 0.501562 18 1.125 18H3C3 19.6547 4.34531 21 6 21V22.875C6 23.4984 6.50156 24 7.125 24C7.74844 24 8.25 23.4984 8.25 22.875V21H10.875V22.875C10.875 23.4984 11.3766 24 12 24C12.6234 24 13.125 23.4984 13.125 22.875V21H15.75V22.875C15.75 23.4984 16.2516 24 16.875 24C17.4984 24 18 23.4984 18 22.875V21C19.6547 21 21 19.6547 21 18H22.875C23.4984 18 24 17.4984 24 16.875C24 16.2516 23.4984 15.75 22.875 15.75H21V13.125H22.875C23.4984 13.125 24 12.6234 24 12C24 11.3766 23.4984 10.875 22.875 10.875H21V8.25H22.875C23.4984 8.25 24 7.74844 24 7.125C24 6.50156 23.4984 6 22.875 6H21C21 4.34531 19.6547 3 18 3V1.125C18 0.501562 17.4984 0 16.875 0C16.2516 0 15.75 0.501562 15.75 1.125V3H13.125V1.125C13.125 0.501562 12.6234 0 12 0C11.3766 0 10.875 0.501562 10.875 1.125V3H8.25V1.125ZM7.5 6H16.5C17.3297 6 18 6.67031 18 7.5V16.5C18 17.3297 17.3297 18 16.5 18H7.5C6.67031 18 6 17.3297 6 16.5V7.5C6 6.67031 6.67031 6 7.5 6ZM16.5 7.5H7.5V16.5H16.5V7.5Z" fill="white"/>
</svg>
