<svg width="33" height="33" viewBox="0 0 33 33" fill="none" xmlns="http://www.w3.org/2000/svg">
<path d="M11.0095 1.5013C11.0095 0.669328 10.3402 0 9.50822 0C8.67625 0 8.00692 0.669328 8.00692 1.5013V4.00346C5.79876 4.00346 4.00346 5.79876 4.00346 8.00692H1.5013C0.669328 8.00692 0 8.67625 0 9.50822C0 10.3402 0.669328 11.0095 1.5013 11.0095H4.00346V14.5125H1.5013C0.669328 14.5125 0 15.1819 0 16.0138C0 16.8458 0.669328 17.5151 1.5013 17.5151H4.00346V21.0182H1.5013C0.669328 21.0182 0 21.6875 0 22.5195C0 23.3514 0.669328 24.0208 1.5013 24.0208H4.00346C4.00346 26.2289 5.79876 28.0242 8.00692 28.0242V30.5264C8.00692 31.3583 8.67625 32.0277 9.50822 32.0277C10.3402 32.0277 11.0095 31.3583 11.0095 30.5264V28.0242H14.5125V30.5264C14.5125 31.3583 15.1819 32.0277 16.0138 32.0277C16.8458 32.0277 17.5151 31.3583 17.5151 30.5264V28.0242H21.0182V30.5264C21.0182 31.3583 21.6875 32.0277 22.5195 32.0277C23.3514 32.0277 24.0208 31.3583 24.0208 30.5264V28.0242C26.2289 28.0242 28.0242 26.2289 28.0242 24.0208H30.5264C31.3583 24.0208 32.0277 23.3514 32.0277 22.5195C32.0277 21.6875 31.3583 21.0182 30.5264 21.0182H28.0242V17.5151H30.5264C31.3583 17.5151 32.0277 16.8458 32.0277 16.0138C32.0277 15.1819 31.3583 14.5125 30.5264 14.5125H28.0242V11.0095H30.5264C31.3583 11.0095 32.0277 10.3402 32.0277 9.50822C32.0277 8.67625 31.3583 8.00692 30.5264 8.00692H28.0242C28.0242 5.79876 26.2289 4.00346 24.0208 4.00346V1.5013C24.0208 0.669328 23.3514 0 22.5195 0C21.6875 0 21.0182 0.669328 21.0182 1.5013V4.00346H17.5151V1.5013C17.5151 0.669328 16.8458 0 16.0138 0C15.1819 0 14.5125 0.669328 14.5125 1.5013V4.00346H11.0095V1.5013ZM10.0086 8.00692H22.019C23.1262 8.00692 24.0208 8.90144 24.0208 10.0086V22.019C24.0208 23.1262 23.1262 24.0208 22.019 24.0208H10.0086C8.90144 24.0208 8.00692 23.1262 8.00692 22.019V10.0086C8.00692 8.90144 8.90144 8.00692 10.0086 8.00692ZM22.019 10.0086H10.0086V22.019H22.019V10.0086Z" fill="#9FEF00"/>
</svg>
