<svg width="13" height="17" viewBox="0 0 13 17" fill="none" xmlns="http://www.w3.org/2000/svg">
<path d="M6.46875 0.25C4.78662 0.25 3.42188 1.61475 3.42188 3.29688V8.375C3.42188 10.0571 4.78662 11.4219 6.46875 11.4219C8.15088 11.4219 9.51562 10.0571 9.51562 8.375V3.29688C9.51562 1.61475 8.15088 0.25 6.46875 0.25ZM2.40625 7.10547C2.40625 6.68335 2.06665 6.34375 1.64453 6.34375C1.22241 6.34375 0.882812 6.68335 0.882812 7.10547V8.375C0.882812 11.2029 2.98389 13.5388 5.70703 13.9102V14.9766H4.18359C3.76147 14.9766 3.42188 15.3162 3.42188 15.7383C3.42188 16.1604 3.76147 16.5 4.18359 16.5H6.46875H8.75391C9.17603 16.5 9.51562 16.1604 9.51562 15.7383C9.51562 15.3162 9.17603 14.9766 8.75391 14.9766H7.23047V13.9102C9.95361 13.5388 12.0547 11.2029 12.0547 8.375V7.10547C12.0547 6.68335 11.7151 6.34375 11.293 6.34375C10.8708 6.34375 10.5312 6.68335 10.5312 7.10547V8.375C10.5312 10.6189 8.71265 12.4375 6.46875 12.4375C4.22485 12.4375 2.40625 10.6189 2.40625 8.375V7.10547Z" fill="#111927"/>
</svg>
