<svg width="36" height="41" viewBox="0 0 36 41" fill="none" xmlns="http://www.w3.org/2000/svg">
<path d="M9.99984 25.6667C9.35817 25.6667 8.80887 25.4382 8.35192 24.9813C7.89498 24.5243 7.6665 23.975 7.6665 23.3333V4.66668C7.6665 4.02501 7.89498 3.4757 8.35192 3.01876C8.80887 2.56182 9.35817 2.33334 9.99984 2.33334H19.3332L26.3332 9.33334V16.3333H23.9998V10.5H18.1665V4.66668H9.99984V23.3333H20.4998V25.6667H9.99984ZM28.6082 26.1042L25.1665 22.6625V25.2583H22.8332V18.6667H29.4248V21H26.7998L30.2415 24.4417L28.6082 26.1042Z" fill="#141D2B"/>
<path d="M12.6338 32.2207V32.6699C12.6338 33.2038 12.5671 33.6823 12.4336 34.1055C12.3001 34.5286 12.1081 34.8883 11.8574 35.1846C11.6068 35.4808 11.3057 35.707 10.9541 35.8633C10.6058 36.0195 10.2152 36.0977 9.78223 36.0977C9.3623 36.0977 8.97656 36.0195 8.625 35.8633C8.27669 35.707 7.97396 35.4808 7.7168 35.1846C7.46289 34.8883 7.26595 34.5286 7.12598 34.1055C6.986 33.6823 6.91602 33.2038 6.91602 32.6699V32.2207C6.91602 31.6868 6.98438 31.21 7.12109 30.79C7.26107 30.3669 7.45801 30.0072 7.71191 29.7109C7.96582 29.4115 8.26693 29.1836 8.61523 29.0273C8.9668 28.8711 9.35254 28.793 9.77246 28.793C10.2054 28.793 10.596 28.8711 10.9443 29.0273C11.2959 29.1836 11.597 29.4115 11.8477 29.7109C12.1016 30.0072 12.2952 30.3669 12.4287 30.79C12.5654 31.21 12.6338 31.6868 12.6338 32.2207ZM11.7012 32.6699V32.2109C11.7012 31.7878 11.6572 31.4134 11.5693 31.0879C11.4847 30.7624 11.3594 30.4889 11.1934 30.2676C11.0273 30.0462 10.8239 29.8786 10.583 29.7646C10.3454 29.6507 10.0752 29.5938 9.77246 29.5938C9.47949 29.5938 9.21419 29.6507 8.97656 29.7646C8.74219 29.8786 8.54036 30.0462 8.37109 30.2676C8.20508 30.4889 8.0765 30.7624 7.98535 31.0879C7.89421 31.4134 7.84863 31.7878 7.84863 32.2109V32.6699C7.84863 33.0964 7.89421 33.474 7.98535 33.8027C8.0765 34.1283 8.20671 34.4033 8.37598 34.6279C8.5485 34.8493 8.75195 35.0169 8.98633 35.1309C9.22396 35.2448 9.48926 35.3018 9.78223 35.3018C10.0882 35.3018 10.36 35.2448 10.5977 35.1309C10.8353 35.0169 11.0355 34.8493 11.1982 34.6279C11.3643 34.4033 11.4896 34.1283 11.5742 33.8027C11.6589 33.474 11.7012 33.0964 11.7012 32.6699ZM14.8115 31.7324V38.0312H13.9033V30.7168H14.7334L14.8115 31.7324ZM18.3711 33.3145V33.417C18.3711 33.8011 18.3255 34.1576 18.2344 34.4863C18.1432 34.8118 18.0098 35.0951 17.834 35.3359C17.6615 35.5768 17.4482 35.764 17.1943 35.8975C16.9404 36.0309 16.6491 36.0977 16.3203 36.0977C15.985 36.0977 15.6888 36.0423 15.4316 35.9316C15.1745 35.821 14.9564 35.6598 14.7773 35.4482C14.5983 35.2367 14.4551 34.9827 14.3477 34.6865C14.2435 34.3903 14.1719 34.0566 14.1328 33.6855V33.1387C14.1719 32.748 14.2451 32.3981 14.3525 32.0889C14.46 31.7796 14.6016 31.516 14.7773 31.2979C14.9564 31.0765 15.1729 30.9089 15.4268 30.7949C15.6807 30.6777 15.9736 30.6191 16.3057 30.6191C16.6377 30.6191 16.9323 30.6842 17.1895 30.8145C17.4466 30.9414 17.6631 31.1237 17.8389 31.3613C18.0146 31.599 18.1465 31.8838 18.2344 32.2158C18.3255 32.5446 18.3711 32.9108 18.3711 33.3145ZM17.4629 33.417V33.3145C17.4629 33.0508 17.4352 32.8034 17.3799 32.5723C17.3245 32.3379 17.2383 32.1328 17.1211 31.957C17.0072 31.778 16.8607 31.638 16.6816 31.5371C16.5026 31.4329 16.2894 31.3809 16.042 31.3809C15.8141 31.3809 15.6156 31.4199 15.4463 31.498C15.2803 31.5762 15.1387 31.682 15.0215 31.8154C14.9043 31.9456 14.8083 32.0954 14.7334 32.2646C14.6618 32.4307 14.6081 32.6032 14.5723 32.7822V34.0469C14.6374 34.2747 14.7285 34.4896 14.8457 34.6914C14.9629 34.89 15.1191 35.0511 15.3145 35.1748C15.5098 35.2952 15.7555 35.3555 16.0518 35.3555C16.2959 35.3555 16.5059 35.305 16.6816 35.2041C16.8607 35.0999 17.0072 34.9583 17.1211 34.7793C17.2383 34.6003 17.3245 34.3952 17.3799 34.1641C17.4352 33.9297 17.4629 33.6807 17.4629 33.417ZM21.7158 36.0977C21.348 36.0977 21.0143 36.0358 20.7148 35.9121C20.4186 35.7852 20.1631 35.6077 19.9482 35.3799C19.7367 35.152 19.5739 34.8818 19.46 34.5693C19.346 34.2568 19.2891 33.915 19.2891 33.5439V33.3389C19.2891 32.9092 19.3525 32.5267 19.4795 32.1914C19.6064 31.8529 19.779 31.5664 19.9971 31.332C20.2152 31.0977 20.4626 30.9202 20.7393 30.7998C21.016 30.6794 21.3024 30.6191 21.5986 30.6191C21.9762 30.6191 22.3018 30.6842 22.5752 30.8145C22.8519 30.9447 23.0781 31.127 23.2539 31.3613C23.4297 31.5924 23.5599 31.8659 23.6445 32.1816C23.7292 32.4941 23.7715 32.8359 23.7715 33.207V33.6123H19.8262V32.875H22.8682V32.8066C22.8551 32.5723 22.8063 32.3444 22.7217 32.123C22.6403 31.9017 22.5101 31.7194 22.3311 31.5762C22.152 31.4329 21.9079 31.3613 21.5986 31.3613C21.3936 31.3613 21.2048 31.4053 21.0322 31.4932C20.8597 31.5778 20.7116 31.7048 20.5879 31.874C20.4642 32.0433 20.3682 32.25 20.2998 32.4941C20.2314 32.7383 20.1973 33.0199 20.1973 33.3389V33.5439C20.1973 33.7946 20.2314 34.0306 20.2998 34.252C20.3714 34.4701 20.474 34.6621 20.6074 34.8281C20.7441 34.9941 20.9085 35.1243 21.1006 35.2188C21.2959 35.3132 21.5173 35.3604 21.7646 35.3604C22.0837 35.3604 22.3538 35.2952 22.5752 35.165C22.7965 35.0348 22.9902 34.8607 23.1562 34.6426L23.7031 35.0771C23.5892 35.2497 23.4443 35.4141 23.2686 35.5703C23.0928 35.7266 22.8763 35.8535 22.6191 35.9512C22.3652 36.0488 22.0641 36.0977 21.7158 36.0977ZM25.7295 31.8447V36H24.8262V30.7168H25.6807L25.7295 31.8447ZM25.5146 33.1582L25.1387 33.1436C25.1419 32.7822 25.1956 32.4486 25.2998 32.1426C25.404 31.8333 25.5505 31.5648 25.7393 31.3369C25.9281 31.109 26.1527 30.9333 26.4131 30.8096C26.6768 30.6826 26.9681 30.6191 27.2871 30.6191C27.5475 30.6191 27.7819 30.6549 27.9902 30.7266C28.1986 30.7949 28.376 30.9056 28.5225 31.0586C28.6722 31.2116 28.7861 31.4102 28.8643 31.6543C28.9424 31.8952 28.9814 32.1898 28.9814 32.5381V36H28.0732V32.5283C28.0732 32.2516 28.0326 32.0303 27.9512 31.8643C27.8698 31.695 27.751 31.5729 27.5947 31.498C27.4385 31.4199 27.2464 31.3809 27.0186 31.3809C26.7939 31.3809 26.5889 31.4281 26.4033 31.5225C26.221 31.6169 26.0632 31.7471 25.9297 31.9131C25.7995 32.0791 25.6969 32.2695 25.6221 32.4844C25.5505 32.696 25.5146 32.9206 25.5146 33.1582Z" fill="#141D2B"/>
</svg>
