<svg width="22" height="17" viewBox="0 0 22 17" fill="none" xmlns="http://www.w3.org/2000/svg">
<path d="M13.0423 0.0397183C12.4779 -0.122977 11.8902 0.205734 11.7275 0.770187L7.47749 15.6452C7.3148 16.2096 7.64351 16.7973 8.20796 16.96C8.77241 17.1227 9.36011 16.794 9.5228 16.2296L13.7728 1.35456C13.9355 0.790109 13.6068 0.202414 13.0423 0.0397183ZM15.7185 4.02741C15.3035 4.44245 15.3035 5.11648 15.7185 5.53152L18.6835 8.49988L15.7152 11.4682C15.3001 11.8833 15.3001 12.5573 15.7152 12.9723C16.1302 13.3874 16.8042 13.3874 17.2193 12.9723L20.938 9.25359C21.3531 8.83855 21.3531 8.16452 20.938 7.74948L17.2193 4.03073C16.8042 3.61569 16.1302 3.61569 15.7152 4.03073L15.7185 4.02741ZM5.53511 4.02741C5.12007 3.61237 4.44604 3.61237 4.03101 4.02741L0.312256 7.74616C-0.102783 8.1612 -0.102783 8.83523 0.312256 9.25027L4.03101 12.969C4.44604 13.3841 5.12007 13.3841 5.53511 12.969C5.95015 12.554 5.95015 11.88 5.53511 11.4649L2.56675 8.49988L5.53511 5.53152C5.95015 5.11648 5.95015 4.44245 5.53511 4.02741Z" fill="#9FEF00"/>
</svg>
