<svg width="36" height="41" viewBox="0 0 36 41" fill="none" xmlns="http://www.w3.org/2000/svg">
<path d="M23.8333 24.5V15.1667H12.1667V24.5M12.1667 3.5V9.33333H21.5M26.1667 24.5H9.83333C9.21449 24.5 8.621 24.2542 8.18342 23.8166C7.74583 23.379 7.5 22.7855 7.5 22.1667V5.83333C7.5 5.21449 7.74583 4.621 8.18342 4.18342C8.621 3.74583 9.21449 3.5 9.83333 3.5H22.6667L28.5 9.33333V22.1667C28.5 22.7855 28.2542 23.379 27.8166 23.8166C27.379 24.2542 26.7855 24.5 26.1667 24.5Z" stroke="#1E1E1E" stroke-width="2.33333" stroke-linecap="round" stroke-linejoin="round"/>
<path d="M11.3184 36.0234C11.3184 35.8408 11.2897 35.6797 11.2324 35.54C11.1787 35.3968 11.082 35.2679 10.9424 35.1533C10.8063 35.0387 10.6165 34.9295 10.373 34.8257C10.1331 34.7218 9.82878 34.6162 9.45996 34.5088C9.07324 34.3942 8.72412 34.2671 8.4126 34.1274C8.10107 33.9842 7.83431 33.8213 7.6123 33.6387C7.3903 33.4561 7.22021 33.2466 7.10205 33.0103C6.98389 32.7739 6.9248 32.5036 6.9248 32.1992C6.9248 31.8949 6.98747 31.6138 7.11279 31.356C7.23812 31.0981 7.41715 30.8743 7.6499 30.6846C7.88623 30.4912 8.16732 30.3408 8.49316 30.2334C8.81901 30.126 9.18245 30.0723 9.5835 30.0723C10.1707 30.0723 10.6685 30.1851 11.0767 30.4106C11.4884 30.6326 11.8018 30.9245 12.0166 31.2861C12.2314 31.6442 12.3389 32.0273 12.3389 32.4355H11.3076C11.3076 32.1419 11.245 31.8823 11.1196 31.6567C10.9943 31.4276 10.8045 31.2485 10.5503 31.1196C10.2961 30.9871 9.9738 30.9209 9.5835 30.9209C9.21468 30.9209 8.91032 30.9764 8.67041 31.0874C8.4305 31.1984 8.25146 31.3488 8.1333 31.5386C8.01872 31.7284 7.96143 31.945 7.96143 32.1885C7.96143 32.3532 7.99544 32.5036 8.06348 32.6396C8.13509 32.7721 8.2443 32.8957 8.39111 33.0103C8.5415 33.1248 8.73128 33.2305 8.96045 33.3271C9.1932 33.4238 9.4707 33.5169 9.79297 33.6064C10.237 33.7318 10.6201 33.8714 10.9424 34.0254C11.2646 34.1794 11.5296 34.353 11.7373 34.5464C11.9486 34.7362 12.1043 34.9528 12.2046 35.1963C12.3084 35.4362 12.3604 35.7083 12.3604 36.0127C12.3604 36.3314 12.2959 36.6196 12.167 36.8774C12.0381 37.1353 11.8537 37.3555 11.6138 37.5381C11.3739 37.7207 11.0856 37.8621 10.749 37.9624C10.416 38.0591 10.0436 38.1074 9.63184 38.1074C9.27018 38.1074 8.9139 38.0573 8.56299 37.957C8.21566 37.8568 7.89876 37.7064 7.6123 37.5059C7.32943 37.3053 7.10205 37.0583 6.93018 36.7646C6.76188 36.4674 6.67773 36.1237 6.67773 35.7334H7.70898C7.70898 36.002 7.7609 36.2329 7.86475 36.4263C7.96859 36.616 8.11003 36.7736 8.28906 36.8989C8.47168 37.0243 8.67757 37.1174 8.90674 37.1782C9.13949 37.2355 9.38118 37.2642 9.63184 37.2642C9.99349 37.2642 10.2996 37.214 10.5503 37.1138C10.8009 37.0135 10.9907 36.8703 11.1196 36.6841C11.2521 36.4979 11.3184 36.2777 11.3184 36.0234ZM16.958 37.0063V34.0146C16.958 33.7855 16.9115 33.5868 16.8184 33.4185C16.7288 33.2466 16.5928 33.1141 16.4102 33.021C16.2275 32.9279 16.002 32.8813 15.7334 32.8813C15.4827 32.8813 15.2625 32.9243 15.0728 33.0103C14.8866 33.0962 14.7397 33.209 14.6323 33.3486C14.5285 33.4883 14.4766 33.6387 14.4766 33.7998H13.4829C13.4829 33.5921 13.5366 33.3862 13.644 33.1821C13.7515 32.978 13.9054 32.7936 14.106 32.6289C14.3101 32.4606 14.5535 32.3281 14.8364 32.2314C15.1229 32.1312 15.4416 32.0811 15.7925 32.0811C16.215 32.0811 16.5874 32.1527 16.9097 32.2959C17.2355 32.4391 17.4897 32.6558 17.6724 32.9458C17.8586 33.2323 17.9517 33.5921 17.9517 34.0254V36.7324C17.9517 36.9258 17.9678 37.1317 18 37.3501C18.0358 37.5685 18.0877 37.7565 18.1558 37.9141V38H17.1191C17.069 37.8854 17.0296 37.7332 17.001 37.5435C16.9723 37.3501 16.958 37.1711 16.958 37.0063ZM17.1299 34.4766L17.1406 35.1748H16.1362C15.8534 35.1748 15.6009 35.1981 15.3789 35.2446C15.1569 35.2876 14.9707 35.3538 14.8203 35.4434C14.6699 35.5329 14.5553 35.6457 14.4766 35.7817C14.3978 35.9142 14.3584 36.07 14.3584 36.249C14.3584 36.4316 14.3996 36.5981 14.4819 36.7485C14.5643 36.8989 14.6878 37.0189 14.8525 37.1084C15.0208 37.1943 15.2267 37.2373 15.4702 37.2373C15.7746 37.2373 16.0431 37.1729 16.2759 37.0439C16.5086 36.915 16.693 36.7575 16.8291 36.5713C16.9688 36.3851 17.0439 36.2043 17.0547 36.0288L17.479 36.5068C17.4539 36.6572 17.3859 36.8237 17.2749 37.0063C17.1639 37.189 17.0153 37.3644 16.8291 37.5327C16.6465 37.6974 16.4281 37.8353 16.1738 37.9463C15.9232 38.0537 15.6403 38.1074 15.3252 38.1074C14.9313 38.1074 14.5858 38.0304 14.2886 37.8765C13.995 37.7225 13.7658 37.5166 13.6011 37.2588C13.4399 36.9974 13.3594 36.7056 13.3594 36.3833C13.3594 36.0718 13.4202 35.7979 13.542 35.5615C13.6637 35.3216 13.8392 35.1229 14.0684 34.9653C14.2975 34.8042 14.5732 34.6825 14.8955 34.6001C15.2178 34.5177 15.5776 34.4766 15.9751 34.4766H17.1299ZM21.1958 37.103L22.7856 32.1885H23.8008L21.7114 38H21.0454L21.1958 37.103ZM19.8691 32.1885L21.5073 37.1299L21.6201 38H20.9541L18.8486 32.1885H19.8691ZM27.0933 38.1074C26.6886 38.1074 26.3216 38.0394 25.9922 37.9033C25.6663 37.7637 25.3853 37.5685 25.1489 37.3179C24.9162 37.0672 24.7371 36.77 24.6118 36.4263C24.4865 36.0825 24.4238 35.7065 24.4238 35.2983V35.0728C24.4238 34.6001 24.4937 34.1794 24.6333 33.8105C24.7729 33.4382 24.9627 33.123 25.2026 32.8652C25.4425 32.6074 25.7147 32.4123 26.019 32.2798C26.3234 32.1473 26.6385 32.0811 26.9644 32.0811C27.3797 32.0811 27.7378 32.1527 28.0386 32.2959C28.3429 32.4391 28.5918 32.6396 28.7852 32.8975C28.9785 33.1517 29.1217 33.4525 29.2148 33.7998C29.3079 34.1436 29.3545 34.5195 29.3545 34.9277V35.3735H25.0146V34.5625H28.3608V34.4873C28.3465 34.2295 28.2928 33.9788 28.1997 33.7354C28.1102 33.4919 27.967 33.2913 27.77 33.1338C27.5731 32.9762 27.3045 32.8975 26.9644 32.8975C26.7388 32.8975 26.5311 32.9458 26.3413 33.0425C26.1515 33.1356 25.9886 33.2752 25.8525 33.4614C25.7165 33.6476 25.6108 33.875 25.5356 34.1436C25.4604 34.4121 25.4229 34.7218 25.4229 35.0728V35.2983C25.4229 35.5741 25.4604 35.8337 25.5356 36.0771C25.6144 36.3171 25.7272 36.5283 25.874 36.7109C26.0244 36.8936 26.2052 37.0368 26.4165 37.1406C26.6313 37.2445 26.8748 37.2964 27.147 37.2964C27.4979 37.2964 27.7951 37.2248 28.0386 37.0815C28.2821 36.9383 28.4951 36.7467 28.6777 36.5068L29.2793 36.9849C29.154 37.1746 28.9946 37.3555 28.8013 37.5273C28.6079 37.6992 28.3698 37.8389 28.0869 37.9463C27.8076 38.0537 27.4764 38.1074 27.0933 38.1074Z" fill="#141D2B"/>
</svg>
