<svg width="36" height="51" viewBox="0 0 36 51" fill="none" xmlns="http://www.w3.org/2000/svg">
<path d="M13.1406 39.5625C13.1406 39.4297 13.1198 39.3125 13.0781 39.2109C13.0391 39.1068 12.9688 39.013 12.8672 38.9297C12.7682 38.8464 12.6302 38.7669 12.4531 38.6914C12.2786 38.6159 12.0573 38.5391 11.7891 38.4609C11.5078 38.3776 11.2539 38.2852 11.0273 38.1836C10.8008 38.0794 10.6068 37.9609 10.4453 37.8281C10.2839 37.6953 10.1602 37.543 10.0742 37.3711C9.98828 37.1992 9.94531 37.0026 9.94531 36.7812C9.94531 36.5599 9.99089 36.3555 10.082 36.168C10.1732 35.9805 10.3034 35.8177 10.4727 35.6797C10.6445 35.5391 10.849 35.4297 11.0859 35.3516C11.3229 35.2734 11.5872 35.2344 11.8789 35.2344C12.306 35.2344 12.668 35.3164 12.9648 35.4805C13.2643 35.6419 13.4922 35.8542 13.6484 36.1172C13.8047 36.3776 13.8828 36.6562 13.8828 36.9531H13.1328C13.1328 36.7396 13.0872 36.5508 12.9961 36.3867C12.9049 36.2201 12.7669 36.0898 12.582 35.9961C12.3971 35.8997 12.1628 35.8516 11.8789 35.8516C11.6107 35.8516 11.3893 35.8919 11.2148 35.9727C11.0404 36.0534 10.9102 36.1628 10.8242 36.3008C10.7409 36.4388 10.6992 36.5964 10.6992 36.7734C10.6992 36.8932 10.724 37.0026 10.7734 37.1016C10.8255 37.1979 10.9049 37.2878 11.0117 37.3711C11.1211 37.4544 11.2591 37.5312 11.4258 37.6016C11.5951 37.6719 11.7969 37.7396 12.0312 37.8047C12.3542 37.8958 12.6328 37.9974 12.8672 38.1094C13.1016 38.2214 13.2943 38.3477 13.4453 38.4883C13.599 38.6263 13.7122 38.7839 13.7852 38.9609C13.8607 39.1354 13.8984 39.3333 13.8984 39.5547C13.8984 39.7865 13.8516 39.9961 13.7578 40.1836C13.6641 40.3711 13.5299 40.5312 13.3555 40.6641C13.181 40.7969 12.9714 40.8997 12.7266 40.9727C12.4844 41.043 12.2135 41.0781 11.9141 41.0781C11.651 41.0781 11.3919 41.0417 11.1367 40.9688C10.8841 40.8958 10.6536 40.7865 10.4453 40.6406C10.2396 40.4948 10.0742 40.3151 9.94922 40.1016C9.82682 39.8854 9.76562 39.6354 9.76562 39.3516H10.5156C10.5156 39.5469 10.5534 39.7148 10.6289 39.8555C10.7044 39.9935 10.8073 40.1081 10.9375 40.1992C11.0703 40.2904 11.2201 40.3581 11.3867 40.4023C11.556 40.444 11.7318 40.4648 11.9141 40.4648C12.1771 40.4648 12.3997 40.4284 12.582 40.3555C12.7643 40.2826 12.9023 40.1784 12.9961 40.043C13.0924 39.9076 13.1406 39.7474 13.1406 39.5625ZM17.2422 40.2773V38.1016C17.2422 37.9349 17.2083 37.7904 17.1406 37.668C17.0755 37.543 16.9766 37.4466 16.8438 37.3789C16.7109 37.3112 16.5469 37.2773 16.3516 37.2773C16.1693 37.2773 16.0091 37.3086 15.8711 37.3711C15.7357 37.4336 15.6289 37.5156 15.5508 37.6172C15.4753 37.7188 15.4375 37.8281 15.4375 37.9453H14.7148C14.7148 37.7943 14.7539 37.6445 14.832 37.4961C14.9102 37.3477 15.0221 37.2135 15.168 37.0938C15.3164 36.9714 15.4935 36.875 15.6992 36.8047C15.9076 36.7318 16.1393 36.6953 16.3945 36.6953C16.7018 36.6953 16.9727 36.7474 17.207 36.8516C17.444 36.9557 17.6289 37.1133 17.7617 37.3242C17.8971 37.5326 17.9648 37.7943 17.9648 38.1094V40.0781C17.9648 40.2188 17.9766 40.3685 18 40.5273C18.026 40.6862 18.0638 40.8229 18.1133 40.9375V41H17.3594C17.3229 40.9167 17.2943 40.806 17.2734 40.668C17.2526 40.5273 17.2422 40.3971 17.2422 40.2773ZM17.3672 38.4375L17.375 38.9453H16.6445C16.4388 38.9453 16.2552 38.9622 16.0938 38.9961C15.9323 39.0273 15.7969 39.0755 15.6875 39.1406C15.5781 39.2057 15.4948 39.2878 15.4375 39.3867C15.3802 39.4831 15.3516 39.5964 15.3516 39.7266C15.3516 39.8594 15.3815 39.9805 15.4414 40.0898C15.5013 40.1992 15.5911 40.2865 15.7109 40.3516C15.8333 40.4141 15.9831 40.4453 16.1602 40.4453C16.3815 40.4453 16.5768 40.3984 16.7461 40.3047C16.9154 40.2109 17.0495 40.0964 17.1484 39.9609C17.25 39.8255 17.3047 39.694 17.3125 39.5664L17.6211 39.9141C17.6029 40.0234 17.5534 40.1445 17.4727 40.2773C17.3919 40.4102 17.2839 40.5378 17.1484 40.6602C17.0156 40.7799 16.8568 40.8802 16.6719 40.9609C16.4896 41.0391 16.2839 41.0781 16.0547 41.0781C15.7682 41.0781 15.5169 41.0221 15.3008 40.9102C15.0872 40.7982 14.9206 40.6484 14.8008 40.4609C14.6836 40.2708 14.625 40.0586 14.625 39.8242C14.625 39.5977 14.6693 39.3984 14.7578 39.2266C14.8464 39.0521 14.974 38.9076 15.1406 38.793C15.3073 38.6758 15.5078 38.5872 15.7422 38.5273C15.9766 38.4674 16.2383 38.4375 16.5273 38.4375H17.3672ZM20.3242 40.3477L21.4805 36.7734H22.2188L20.6992 41H20.2148L20.3242 40.3477ZM19.3594 36.7734L20.5508 40.3672L20.6328 41H20.1484L18.6172 36.7734H19.3594ZM24.6133 41.0781C24.319 41.0781 24.0521 41.0286 23.8125 40.9297C23.5755 40.8281 23.3711 40.6862 23.1992 40.5039C23.0299 40.3216 22.8997 40.1055 22.8086 39.8555C22.7174 39.6055 22.6719 39.332 22.6719 39.0352V38.8711C22.6719 38.5273 22.7227 38.2214 22.8242 37.9531C22.9258 37.6823 23.0638 37.4531 23.2383 37.2656C23.4128 37.0781 23.6107 36.9362 23.832 36.8398C24.0534 36.7435 24.2826 36.6953 24.5195 36.6953C24.8216 36.6953 25.082 36.7474 25.3008 36.8516C25.5221 36.9557 25.7031 37.1016 25.8438 37.2891C25.9844 37.474 26.0885 37.6927 26.1562 37.9453C26.224 38.1953 26.2578 38.4688 26.2578 38.7656V39.0898H23.1016V38.5H25.5352V38.4453C25.5247 38.2578 25.4857 38.0755 25.418 37.8984C25.3529 37.7214 25.2487 37.5755 25.1055 37.4609C24.9622 37.3464 24.7669 37.2891 24.5195 37.2891C24.3555 37.2891 24.2044 37.3242 24.0664 37.3945C23.9284 37.4622 23.8099 37.5638 23.7109 37.6992C23.612 37.8346 23.5352 38 23.4805 38.1953C23.4258 38.3906 23.3984 38.6159 23.3984 38.8711V39.0352C23.3984 39.2357 23.4258 39.4245 23.4805 39.6016C23.5378 39.776 23.6198 39.9297 23.7266 40.0625C23.8359 40.1953 23.9674 40.2995 24.1211 40.375C24.2773 40.4505 24.4544 40.4883 24.6523 40.4883C24.9076 40.4883 25.1237 40.4362 25.3008 40.332C25.4779 40.2279 25.6328 40.0885 25.7656 39.9141L26.2031 40.2617C26.112 40.3997 25.9961 40.5312 25.8555 40.6562C25.7148 40.7812 25.5417 40.8828 25.3359 40.9609C25.1328 41.0391 24.8919 41.0781 24.6133 41.0781ZM6.66016 44V50H5.9375V44H6.66016ZM6.48828 47.7266L6.1875 47.7148C6.1901 47.4258 6.23307 47.1589 6.31641 46.9141C6.39974 46.6667 6.51693 46.4518 6.66797 46.2695C6.81901 46.0872 6.9987 45.9466 7.20703 45.8477C7.41797 45.7461 7.65104 45.6953 7.90625 45.6953C8.11458 45.6953 8.30208 45.724 8.46875 45.7812C8.63542 45.8359 8.77734 45.9245 8.89453 46.0469C9.01432 46.1693 9.10547 46.3281 9.16797 46.5234C9.23047 46.7161 9.26172 46.9518 9.26172 47.2305V50H8.53516V47.2227C8.53516 47.0013 8.5026 46.8242 8.4375 46.6914C8.3724 46.556 8.27734 46.4583 8.15234 46.3984C8.02734 46.3359 7.8737 46.3047 7.69141 46.3047C7.51172 46.3047 7.34766 46.3424 7.19922 46.418C7.05339 46.4935 6.92708 46.5977 6.82031 46.7305C6.71615 46.8633 6.63411 47.0156 6.57422 47.1875C6.51693 47.3568 6.48828 47.5365 6.48828 47.7266ZM12.0977 50.0781C11.8034 50.0781 11.5365 50.0286 11.2969 49.9297C11.0599 49.8281 10.8555 49.6862 10.6836 49.5039C10.5143 49.3216 10.3841 49.1055 10.293 48.8555C10.2018 48.6055 10.1562 48.332 10.1562 48.0352V47.8711C10.1562 47.5273 10.207 47.2214 10.3086 46.9531C10.4102 46.6823 10.5482 46.4531 10.7227 46.2656C10.8971 46.0781 11.0951 45.9362 11.3164 45.8398C11.5378 45.7435 11.7669 45.6953 12.0039 45.6953C12.306 45.6953 12.5664 45.7474 12.7852 45.8516C13.0065 45.9557 13.1875 46.1016 13.3281 46.2891C13.4688 46.474 13.5729 46.6927 13.6406 46.9453C13.7083 47.1953 13.7422 47.4688 13.7422 47.7656V48.0898H10.5859V47.5H13.0195V47.4453C13.0091 47.2578 12.9701 47.0755 12.9023 46.8984C12.8372 46.7214 12.7331 46.5755 12.5898 46.4609C12.4466 46.3464 12.2513 46.2891 12.0039 46.2891C11.8398 46.2891 11.6888 46.3242 11.5508 46.3945C11.4128 46.4622 11.2943 46.5638 11.1953 46.6992C11.0964 46.8346 11.0195 47 10.9648 47.1953C10.9102 47.3906 10.8828 47.6159 10.8828 47.8711V48.0352C10.8828 48.2357 10.9102 48.4245 10.9648 48.6016C11.0221 48.776 11.1042 48.9297 11.2109 49.0625C11.3203 49.1953 11.4518 49.2995 11.6055 49.375C11.7617 49.4505 11.9388 49.4883 12.1367 49.4883C12.3919 49.4883 12.6081 49.4362 12.7852 49.332C12.9622 49.2279 13.1172 49.0885 13.25 48.9141L13.6875 49.2617C13.5964 49.3997 13.4805 49.5312 13.3398 49.6562C13.1992 49.7812 13.026 49.8828 12.8203 49.9609C12.6172 50.0391 12.3763 50.0781 12.0977 50.0781ZM15.0742 45.7734L16 47.3125L16.9375 45.7734H17.7852L16.4023 47.8594L17.8281 50H16.9922L16.0156 48.4141L15.0391 50H14.1992L15.6211 47.8594L14.2422 45.7734H15.0742ZM21.5039 50H20.7812V45.4062C20.7812 45.0859 20.8438 44.8151 20.9688 44.5938C21.0938 44.3724 21.2721 44.2044 21.5039 44.0898C21.7357 43.9753 22.0104 43.918 22.3281 43.918C22.5156 43.918 22.6992 43.9414 22.8789 43.9883C23.0586 44.0326 23.2435 44.0885 23.4336 44.1562L23.3125 44.7656C23.1927 44.7188 23.0534 44.6745 22.8945 44.6328C22.7383 44.5885 22.5664 44.5664 22.3789 44.5664C22.069 44.5664 21.8451 44.6367 21.707 44.7773C21.5716 44.9154 21.5039 45.125 21.5039 45.4062V50ZM22.3672 45.7734V46.3281H20.1133V45.7734H22.3672ZM23.7891 45.7734V50H23.0664V45.7734H23.7891ZM25.7617 44V50H25.0352V44H25.7617ZM28.6758 50.0781C28.3815 50.0781 28.1146 50.0286 27.875 49.9297C27.638 49.8281 27.4336 49.6862 27.2617 49.5039C27.0924 49.3216 26.9622 49.1055 26.8711 48.8555C26.7799 48.6055 26.7344 48.332 26.7344 48.0352V47.8711C26.7344 47.5273 26.7852 47.2214 26.8867 46.9531C26.9883 46.6823 27.1263 46.4531 27.3008 46.2656C27.4753 46.0781 27.6732 45.9362 27.8945 45.8398C28.1159 45.7435 28.3451 45.6953 28.582 45.6953C28.8841 45.6953 29.1445 45.7474 29.3633 45.8516C29.5846 45.9557 29.7656 46.1016 29.9062 46.2891C30.0469 46.474 30.151 46.6927 30.2188 46.9453C30.2865 47.1953 30.3203 47.4688 30.3203 47.7656V48.0898H27.1641V47.5H29.5977V47.4453C29.5872 47.2578 29.5482 47.0755 29.4805 46.8984C29.4154 46.7214 29.3112 46.5755 29.168 46.4609C29.0247 46.3464 28.8294 46.2891 28.582 46.2891C28.418 46.2891 28.2669 46.3242 28.1289 46.3945C27.9909 46.4622 27.8724 46.5638 27.7734 46.6992C27.6745 46.8346 27.5977 47 27.543 47.1953C27.4883 47.3906 27.4609 47.6159 27.4609 47.8711V48.0352C27.4609 48.2357 27.4883 48.4245 27.543 48.6016C27.6003 48.776 27.6823 48.9297 27.7891 49.0625C27.8984 49.1953 28.0299 49.2995 28.1836 49.375C28.3398 49.4505 28.5169 49.4883 28.7148 49.4883C28.9701 49.4883 29.1862 49.4362 29.3633 49.332C29.5404 49.2279 29.6953 49.0885 29.8281 48.9141L30.2656 49.2617C30.1745 49.3997 30.0586 49.5312 29.918 49.6562C29.7773 49.7812 29.6042 49.8828 29.3984 49.9609C29.1953 50.0391 28.9544 50.0781 28.6758 50.0781Z" fill="#141D2B"/>
<path d="M28.096 11.7401C27.7978 13.2843 27.5079 14.7941 27.2226 16.28C27.4141 16.4303 27.5853 16.3861 27.7463 16.3889C28.49 16.402 29.2393 16.3556 29.9765 16.4305C31.7552 16.6112 32.9821 17.9988 32.9939 19.7791C33.0004 20.7713 33.0038 21.7637 32.9932 22.7559C32.974 24.5516 31.5125 25.9991 29.7148 26.0114C29.012 26.0162 28.3081 26.0332 27.6065 26.0035C27.2157 25.9869 27.1006 26.1272 27.118 26.4999C27.1803 27.8317 26.6483 28.8536 25.4729 29.5109C25.2711 29.6238 25.0457 29.7363 24.8219 29.7594C24.3984 29.8032 24.1329 30.0249 23.8824 30.3447C22.9825 31.4939 21.7951 31.8561 20.3873 31.5542C19.3849 31.3393 18.442 30.9478 17.5076 30.542C16.4592 30.0866 15.3983 29.8072 14.2299 29.8707C12.9245 29.9416 11.6122 29.8792 10.3029 29.8894C9.05952 29.8992 8.04016 29.4773 7.34372 28.4071C7.24526 28.2558 7.09883 28.1978 6.94443 28.134C5.52396 27.5476 4.77517 26.1868 5.05976 24.6646C5.6493 21.5112 6.25065 18.36 6.85331 15.2091C6.8954 14.989 6.89922 14.7714 6.89924 14.5517C6.89943 11.4095 6.89741 8.26717 6.89734 5.1249C6.8973 3.54789 7.73996 2.39526 9.25258 1.98931C9.6568 1.88083 9.92826 1.68309 10.1765 1.3692C10.7421 0.654036 11.4612 0.165303 12.3816 0.0289035C13.0249 -0.0664437 13.64 0.088748 14.2474 0.280643C15.2216 0.588412 16.1476 1.01642 17.0796 1.4277C17.7679 1.73139 18.4615 1.91923 19.2324 1.8997C20.7888 1.86028 22.3468 1.89064 23.9042 1.88818C25.0496 1.88637 25.9609 2.33716 26.6057 3.28968C26.737 3.48371 26.8969 3.60059 27.1107 3.68607C28.4987 4.24106 29.2627 5.64625 28.9831 7.12622C28.6945 8.65352 28.3975 10.1792 28.096 11.7401ZM23.5834 3.25261C19.1173 3.253 14.6513 3.25323 10.1852 3.25387C8.91574 3.25405 8.24665 3.92213 8.23643 5.18347C8.21813 7.44363 8.22523 9.70384 8.20808 11.9641C8.17095 16.8565 8.19332 21.7494 8.20167 26.6421C8.2037 27.8358 8.93015 28.5336 10.1223 28.5337C14.6987 28.5344 19.2752 28.5151 23.8513 28.5479C24.9241 28.5556 25.8665 27.8388 25.7773 26.5927C25.736 26.0169 25.7697 26.0134 25.1727 26.0133C21.8232 26.0123 18.4736 26.0164 15.124 26.0095C13.5152 26.0062 12.2267 24.9087 11.9239 23.3226C11.8061 22.7057 11.8706 22.0857 11.8626 21.4674C11.8531 20.7374 11.8007 19.9974 11.8957 19.2787C12.1226 17.5601 13.5186 16.398 15.2877 16.3937C18.6097 16.3855 21.9317 16.3878 25.2537 16.3918C25.562 16.3922 25.7767 16.376 25.7754 15.9635C25.7633 12.2832 25.772 8.60278 25.7643 4.9224C25.7626 4.09884 25.2464 3.46702 24.4458 3.2923C24.1944 3.23744 23.9253 3.26359 23.5834 3.25261ZM13.2076 23.1178C13.4501 24.1529 14.1582 24.7207 15.2143 24.7208C20.0226 24.7214 24.8309 24.7214 29.6392 24.7199C30.8358 24.7196 31.698 23.8685 31.708 22.6714C31.7161 21.707 31.716 20.7425 31.7079 19.7782C31.698 18.5984 30.8495 17.73 29.677 17.7284C24.8411 17.7219 20.0053 17.723 15.1694 17.7299C14.1151 17.7314 13.2374 18.4608 13.175 19.5005C13.1042 20.6796 13.1014 21.8671 13.2076 23.1178ZM27.7267 6.22979C27.6256 5.90207 27.5741 5.54262 27.158 5.33756C27.158 6.78581 27.158 8.17799 27.158 9.57017C27.2236 9.3864 27.2721 9.2008 27.2999 9.01215C27.4333 8.10609 27.7537 7.22994 27.7267 6.22979ZM6.89781 25.1961C6.89781 24.1686 6.89781 23.1411 6.89781 22.1137C6.67333 23.0916 6.46154 24.0697 6.3024 25.0563C6.21428 25.6026 6.38972 26.0944 6.89771 26.4568C6.89771 26.064 6.89771 25.6712 6.89781 25.1961ZM12.3518 1.48636C12.1862 1.55541 11.9749 1.55717 11.873 1.81604C12.7135 1.92213 13.5116 1.91391 14.3125 1.7908C13.7201 1.42677 13.0799 1.37647 12.3518 1.48636ZM20.1199 30.121C21.1658 30.3876 21.8331 30.3302 22.2809 29.9116C21.3872 29.9116 20.5212 29.9116 19.6551 29.9116C19.6512 29.9296 19.6474 29.9476 19.6435 29.9657C19.7817 30.0112 19.9199 30.0567 20.1199 30.121Z" fill="#141D2B"/>
<path d="M20.2372 9.09444C21.0083 9.09576 21.7384 9.08268 22.4677 9.10329C22.9931 9.11814 23.3116 9.56025 23.1376 9.99719C23.0147 10.3059 22.7559 10.4162 22.4433 10.4187C21.8788 10.4233 21.3142 10.423 20.7497 10.4232C17.7893 10.424 14.8289 10.4246 11.8685 10.4246C11.1688 10.4246 10.824 10.2079 10.8184 9.7687C10.8128 9.3245 11.1653 9.09277 11.8516 9.09281C14.633 9.09297 17.4144 9.09385 20.2372 9.09444Z" fill="#141D2B"/>
<path d="M12.6279 13.8269C12.2695 13.8264 11.9523 13.8318 11.6354 13.8239C11.149 13.8118 10.8355 13.557 10.8236 13.1755C10.8115 12.7899 11.1456 12.5033 11.6495 12.4993C12.711 12.4908 13.7726 12.4961 14.8341 12.4958C17.2466 12.4953 19.6591 12.4947 22.0717 12.4945C22.2095 12.4945 22.348 12.4898 22.4851 12.5004C22.9115 12.5336 23.1806 12.7946 23.183 13.1689C23.1852 13.5306 22.9048 13.7904 22.4708 13.8222C22.3473 13.8312 22.2228 13.8267 22.0987 13.8267C18.9555 13.8269 15.8123 13.8269 12.6279 13.8269Z" fill="#141D2B"/>
<path d="M11.1907 6.93818C10.9047 6.73881 10.7594 6.50403 10.8579 6.18054C10.9618 5.83949 11.2345 5.728 11.5589 5.70714C11.696 5.69832 11.8341 5.70238 11.9718 5.70239C15.3726 5.70282 18.7734 5.70327 22.1741 5.7043C22.8355 5.70449 23.1818 5.92466 23.1968 6.35109C23.2116 6.77217 22.8537 7.02955 22.1975 7.03073C18.7142 7.03699 15.2307 7.03735 11.7474 7.03414C11.5716 7.03398 11.3958 6.9817 11.1907 6.93818Z" fill="#141D2B"/>
<path d="M16.8706 22.2744C16.8705 22.4515 16.8856 22.5914 16.867 22.7266C16.8291 23.0025 17.0244 23.3956 16.7406 23.5317C16.3755 23.7069 15.9292 23.6137 15.5199 23.5704C15.35 23.5525 15.3406 23.3842 15.3406 23.2422C15.3404 21.9059 15.3438 20.5696 15.3389 19.2333C15.3379 18.9715 15.4471 18.8559 15.7076 18.8573C17.1042 18.8647 16.8452 18.7029 16.869 19.9216C16.8802 20.4903 16.8716 20.4943 17.4314 20.4906C18.4419 20.4839 18.3033 20.5997 18.3153 19.6126C18.3167 19.5024 18.3248 19.3917 18.3171 19.2821C18.2967 18.9899 18.4127 18.8522 18.721 18.8554C20.0636 18.8695 19.8308 18.711 19.8461 19.9164C19.8597 20.9771 19.8348 22.0382 19.855 23.0987C19.8622 23.4736 19.7475 23.6134 19.3632 23.6043C18.137 23.5755 18.3389 23.7296 18.3155 22.5822C18.2952 21.5881 18.4853 21.7397 17.3952 21.7003C16.9729 21.685 16.8021 21.8174 16.8706 22.2744Z" fill="#141D2B"/>
<path d="M22.8152 21.6274C22.4718 21.6125 22.1844 21.5912 22.2256 22.0544C22.2486 22.3127 22.3292 22.4282 22.5954 22.424C23.1464 22.4153 23.6977 22.4287 24.2486 22.4209C24.5457 22.4167 24.6874 22.5372 24.6548 22.841C24.649 22.8955 24.6541 22.9511 24.6543 23.0062C24.6559 23.5985 24.6559 23.5988 24.0763 23.5987C23.1118 23.5987 22.1472 23.5885 21.183 23.6033C20.8381 23.6086 20.6879 23.512 20.6935 23.1364C20.7125 21.8553 20.7094 20.5737 20.6978 19.2925C20.6948 18.9714 20.8089 18.8503 21.1293 18.8534C22.1488 18.8635 23.1686 18.8665 24.1879 18.849C24.5875 18.8421 24.6404 19.0574 24.6279 19.3734C24.6163 19.6671 24.6621 19.9745 24.2068 19.9585C23.7389 19.942 23.2696 19.9436 22.8018 19.9601C22.5714 19.9683 22.2314 19.8298 22.2357 20.2787C22.2397 20.7035 22.5622 20.5646 22.7789 20.5731C23.2054 20.5898 23.6333 20.5894 24.0599 20.5744C24.4274 20.5615 24.4607 20.7929 24.445 21.0608C24.4296 21.3231 24.4971 21.6448 24.0531 21.629C23.6541 21.6147 23.2541 21.6269 22.8152 21.6274Z" fill="#141D2B"/>
<path d="M29.0822 18.856C29.3211 18.8756 29.5339 18.8055 29.7221 18.937C29.7856 19.1315 29.6406 19.2501 29.5589 19.3816C29.2537 19.8724 28.9448 20.3615 28.6211 20.8403C28.4697 21.0643 28.4651 21.2404 28.6269 21.4709C29.0142 22.0226 29.3716 22.5955 29.7389 23.1612C29.8043 23.2619 29.906 23.3488 29.8772 23.5479C29.3948 23.6365 28.8944 23.6179 28.3971 23.5615C28.2394 23.5436 28.1793 23.3631 28.096 23.2389C27.8766 22.9119 27.7154 22.5454 27.4304 22.2281C27.1428 22.526 26.9736 22.874 26.7896 23.2033C26.6182 23.51 26.4014 23.6395 26.0579 23.6009C25.6984 23.5605 25.3239 23.6673 24.9639 23.5225C24.9923 23.2417 25.1756 23.0789 25.2979 22.8871C25.5939 22.423 25.891 21.9588 26.2102 21.5107C26.3942 21.2525 26.4198 21.0431 26.2234 20.7709C25.8937 20.3138 25.6004 19.8301 25.2982 19.3535C25.2209 19.2316 25.0971 19.1212 25.1494 18.9019C25.6095 18.8218 26.085 18.8409 26.558 18.8837C26.7237 18.8988 26.7813 19.0746 26.8603 19.2012C27.0477 19.5017 27.1814 19.8367 27.4399 20.1256C27.6462 19.9684 27.753 19.7548 27.8281 19.5454C28.0397 18.9553 28.4493 18.7531 29.0822 18.856Z" fill="#141D2B"/>
</svg>
