<svg width="36" height="41" viewBox="0 0 36 41" fill="none" xmlns="http://www.w3.org/2000/svg">
<path d="M9.83333 24.5C9.19167 24.5 8.64236 24.2715 8.18542 23.8146C7.72847 23.3576 7.5 22.8083 7.5 22.1667V5.83333C7.5 5.19167 7.72847 4.64236 8.18542 4.18542C8.64236 3.72847 9.19167 3.5 9.83333 3.5H23.8333L28.5 8.16667V14.35C28.1306 14.1944 27.7465 14.0924 27.3479 14.0437C26.9493 13.9951 26.5556 14 26.1667 14.0583V9.12917L22.8708 5.83333H9.83333V22.1667H16.8333V24.5H9.83333ZM19.1667 26.8333V23.2458L25.6125 16.8292C25.7875 16.6542 25.9819 16.5278 26.1958 16.45C26.4097 16.3722 26.6236 16.3333 26.8375 16.3333C27.0708 16.3333 27.2944 16.3771 27.5083 16.4646C27.7222 16.5521 27.9167 16.6833 28.0917 16.8583L29.1708 17.9375C29.3264 18.1125 29.4479 18.3069 29.5354 18.5208C29.6229 18.7347 29.6667 18.9486 29.6667 19.1625C29.6667 19.3764 29.6278 19.5951 29.55 19.8188C29.4722 20.0424 29.3458 20.2417 29.1708 20.4167L22.7542 26.8333H19.1667ZM20.9167 25.0833H22.025L25.5542 21.525L25.0292 20.9708L24.475 20.4458L20.9167 23.975V25.0833ZM25.0292 20.9708L24.475 20.4458L25.5542 21.525L25.0292 20.9708ZM11 11.6667H21.5V7H11V11.6667ZM18 21H18.1167L21.5 17.6458V17.5C21.5 16.5278 21.1597 15.7014 20.4792 15.0208C19.7986 14.3403 18.9722 14 18 14C17.0278 14 16.2014 14.3403 15.5208 15.0208C14.8403 15.7014 14.5 16.5278 14.5 17.5C14.5 18.4722 14.8403 19.2986 15.5208 19.9792C16.2014 20.6597 17.0278 21 18 21Z" fill="#141D2B"/>
<path d="M7.90625 35.5625C7.90625 35.4297 7.88542 35.3125 7.84375 35.2109C7.80469 35.1068 7.73438 35.013 7.63281 34.9297C7.53385 34.8464 7.39583 34.7669 7.21875 34.6914C7.04427 34.6159 6.82292 34.5391 6.55469 34.4609C6.27344 34.3776 6.01953 34.2852 5.79297 34.1836C5.56641 34.0794 5.3724 33.9609 5.21094 33.8281C5.04948 33.6953 4.92578 33.543 4.83984 33.3711C4.75391 33.1992 4.71094 33.0026 4.71094 32.7812C4.71094 32.5599 4.75651 32.3555 4.84766 32.168C4.9388 31.9805 5.06901 31.8177 5.23828 31.6797C5.41016 31.5391 5.61458 31.4297 5.85156 31.3516C6.08854 31.2734 6.35286 31.2344 6.64453 31.2344C7.07161 31.2344 7.43359 31.3164 7.73047 31.4805C8.02995 31.6419 8.25781 31.8542 8.41406 32.1172C8.57031 32.3776 8.64844 32.6562 8.64844 32.9531H7.89844C7.89844 32.7396 7.85286 32.5508 7.76172 32.3867C7.67057 32.2201 7.53255 32.0898 7.34766 31.9961C7.16276 31.8997 6.92839 31.8516 6.64453 31.8516C6.3763 31.8516 6.15495 31.8919 5.98047 31.9727C5.80599 32.0534 5.67578 32.1628 5.58984 32.3008C5.50651 32.4388 5.46484 32.5964 5.46484 32.7734C5.46484 32.8932 5.48958 33.0026 5.53906 33.1016C5.59115 33.1979 5.67057 33.2878 5.77734 33.3711C5.88672 33.4544 6.02474 33.5312 6.19141 33.6016C6.36068 33.6719 6.5625 33.7396 6.79688 33.8047C7.11979 33.8958 7.39844 33.9974 7.63281 34.1094C7.86719 34.2214 8.0599 34.3477 8.21094 34.4883C8.36458 34.6263 8.47786 34.7839 8.55078 34.9609C8.6263 35.1354 8.66406 35.3333 8.66406 35.5547C8.66406 35.7865 8.61719 35.9961 8.52344 36.1836C8.42969 36.3711 8.29557 36.5312 8.12109 36.6641C7.94661 36.7969 7.73698 36.8997 7.49219 36.9727C7.25 37.043 6.97917 37.0781 6.67969 37.0781C6.41667 37.0781 6.15755 37.0417 5.90234 36.9688C5.64974 36.8958 5.41927 36.7865 5.21094 36.6406C5.00521 36.4948 4.83984 36.3151 4.71484 36.1016C4.59245 35.8854 4.53125 35.6354 4.53125 35.3516H5.28125C5.28125 35.5469 5.31901 35.7148 5.39453 35.8555C5.47005 35.9935 5.57292 36.1081 5.70312 36.1992C5.83594 36.2904 5.98568 36.3581 6.15234 36.4023C6.32161 36.444 6.4974 36.4648 6.67969 36.4648C6.94271 36.4648 7.16536 36.4284 7.34766 36.3555C7.52995 36.2826 7.66797 36.1784 7.76172 36.043C7.85807 35.9076 7.90625 35.7474 7.90625 35.5625ZM12.0078 36.2773V34.1016C12.0078 33.9349 11.974 33.7904 11.9062 33.668C11.8411 33.543 11.7422 33.4466 11.6094 33.3789C11.4766 33.3112 11.3125 33.2773 11.1172 33.2773C10.9349 33.2773 10.7747 33.3086 10.6367 33.3711C10.5013 33.4336 10.3945 33.5156 10.3164 33.6172C10.2409 33.7188 10.2031 33.8281 10.2031 33.9453H9.48047C9.48047 33.7943 9.51953 33.6445 9.59766 33.4961C9.67578 33.3477 9.78776 33.2135 9.93359 33.0938C10.082 32.9714 10.2591 32.875 10.4648 32.8047C10.6732 32.7318 10.9049 32.6953 11.1602 32.6953C11.4674 32.6953 11.7383 32.7474 11.9727 32.8516C12.2096 32.9557 12.3945 33.1133 12.5273 33.3242C12.6628 33.5326 12.7305 33.7943 12.7305 34.1094V36.0781C12.7305 36.2188 12.7422 36.3685 12.7656 36.5273C12.7917 36.6862 12.8294 36.8229 12.8789 36.9375V37H12.125C12.0885 36.9167 12.0599 36.806 12.0391 36.668C12.0182 36.5273 12.0078 36.3971 12.0078 36.2773ZM12.1328 34.4375L12.1406 34.9453H11.4102C11.2044 34.9453 11.0208 34.9622 10.8594 34.9961C10.6979 35.0273 10.5625 35.0755 10.4531 35.1406C10.3438 35.2057 10.2604 35.2878 10.2031 35.3867C10.1458 35.4831 10.1172 35.5964 10.1172 35.7266C10.1172 35.8594 10.1471 35.9805 10.207 36.0898C10.2669 36.1992 10.3568 36.2865 10.4766 36.3516C10.599 36.4141 10.7487 36.4453 10.9258 36.4453C11.1471 36.4453 11.3424 36.3984 11.5117 36.3047C11.681 36.2109 11.8151 36.0964 11.9141 35.9609C12.0156 35.8255 12.0703 35.694 12.0781 35.5664L12.3867 35.9141C12.3685 36.0234 12.319 36.1445 12.2383 36.2773C12.1576 36.4102 12.0495 36.5378 11.9141 36.6602C11.7812 36.7799 11.6224 36.8802 11.4375 36.9609C11.2552 37.0391 11.0495 37.0781 10.8203 37.0781C10.5339 37.0781 10.2826 37.0221 10.0664 36.9102C9.85286 36.7982 9.6862 36.6484 9.56641 36.4609C9.44922 36.2708 9.39062 36.0586 9.39062 35.8242C9.39062 35.5977 9.4349 35.3984 9.52344 35.2266C9.61198 35.0521 9.73958 34.9076 9.90625 34.793C10.0729 34.6758 10.2734 34.5872 10.5078 34.5273C10.7422 34.4674 11.0039 34.4375 11.293 34.4375H12.1328ZM15.0898 36.3477L16.2461 32.7734H16.9844L15.4648 37H14.9805L15.0898 36.3477ZM14.125 32.7734L15.3164 36.3672L15.3984 37H14.9141L13.3828 32.7734H14.125ZM19.3789 37.0781C19.0846 37.0781 18.8177 37.0286 18.5781 36.9297C18.3411 36.8281 18.1367 36.6862 17.9648 36.5039C17.7956 36.3216 17.6654 36.1055 17.5742 35.8555C17.4831 35.6055 17.4375 35.332 17.4375 35.0352V34.8711C17.4375 34.5273 17.4883 34.2214 17.5898 33.9531C17.6914 33.6823 17.8294 33.4531 18.0039 33.2656C18.1784 33.0781 18.3763 32.9362 18.5977 32.8398C18.819 32.7435 19.0482 32.6953 19.2852 32.6953C19.5872 32.6953 19.8477 32.7474 20.0664 32.8516C20.2878 32.9557 20.4688 33.1016 20.6094 33.2891C20.75 33.474 20.8542 33.6927 20.9219 33.9453C20.9896 34.1953 21.0234 34.4688 21.0234 34.7656V35.0898H17.8672V34.5H20.3008V34.4453C20.2904 34.2578 20.2513 34.0755 20.1836 33.8984C20.1185 33.7214 20.0143 33.5755 19.8711 33.4609C19.7279 33.3464 19.5326 33.2891 19.2852 33.2891C19.1211 33.2891 18.9701 33.3242 18.832 33.3945C18.694 33.4622 18.5755 33.5638 18.4766 33.6992C18.3776 33.8346 18.3008 34 18.2461 34.1953C18.1914 34.3906 18.1641 34.6159 18.1641 34.8711V35.0352C18.1641 35.2357 18.1914 35.4245 18.2461 35.6016C18.3034 35.776 18.3854 35.9297 18.4922 36.0625C18.6016 36.1953 18.7331 36.2995 18.8867 36.375C19.043 36.4505 19.2201 36.4883 19.418 36.4883C19.6732 36.4883 19.8893 36.4362 20.0664 36.332C20.2435 36.2279 20.3984 36.0885 20.5312 35.9141L20.9688 36.2617C20.8776 36.3997 20.7617 36.5312 20.6211 36.6562C20.4805 36.7812 20.3073 36.8828 20.1016 36.9609C19.8984 37.0391 19.6576 37.0781 19.3789 37.0781ZM26.3438 36.2773V34.1016C26.3438 33.9349 26.3099 33.7904 26.2422 33.668C26.1771 33.543 26.0781 33.4466 25.9453 33.3789C25.8125 33.3112 25.6484 33.2773 25.4531 33.2773C25.2708 33.2773 25.1107 33.3086 24.9727 33.3711C24.8372 33.4336 24.7305 33.5156 24.6523 33.6172C24.5768 33.7188 24.5391 33.8281 24.5391 33.9453H23.8164C23.8164 33.7943 23.8555 33.6445 23.9336 33.4961C24.0117 33.3477 24.1237 33.2135 24.2695 33.0938C24.418 32.9714 24.5951 32.875 24.8008 32.8047C25.0091 32.7318 25.2409 32.6953 25.4961 32.6953C25.8034 32.6953 26.0742 32.7474 26.3086 32.8516C26.5456 32.9557 26.7305 33.1133 26.8633 33.3242C26.9987 33.5326 27.0664 33.7943 27.0664 34.1094V36.0781C27.0664 36.2188 27.0781 36.3685 27.1016 36.5273C27.1276 36.6862 27.1654 36.8229 27.2148 36.9375V37H26.4609C26.4245 36.9167 26.3958 36.806 26.375 36.668C26.3542 36.5273 26.3438 36.3971 26.3438 36.2773ZM26.4688 34.4375L26.4766 34.9453H25.7461C25.5404 34.9453 25.3568 34.9622 25.1953 34.9961C25.0339 35.0273 24.8984 35.0755 24.7891 35.1406C24.6797 35.2057 24.5964 35.2878 24.5391 35.3867C24.4818 35.4831 24.4531 35.5964 24.4531 35.7266C24.4531 35.8594 24.4831 35.9805 24.543 36.0898C24.6029 36.1992 24.6927 36.2865 24.8125 36.3516C24.9349 36.4141 25.0846 36.4453 25.2617 36.4453C25.4831 36.4453 25.6784 36.3984 25.8477 36.3047C26.0169 36.2109 26.151 36.0964 26.25 35.9609C26.3516 35.8255 26.4062 35.694 26.4141 35.5664L26.7227 35.9141C26.7044 36.0234 26.6549 36.1445 26.5742 36.2773C26.4935 36.4102 26.3854 36.5378 26.25 36.6602C26.1172 36.7799 25.9583 36.8802 25.7734 36.9609C25.5911 37.0391 25.3854 37.0781 25.1562 37.0781C24.8698 37.0781 24.6185 37.0221 24.4023 36.9102C24.1888 36.7982 24.0221 36.6484 23.9023 36.4609C23.7852 36.2708 23.7266 36.0586 23.7266 35.8242C23.7266 35.5977 23.7708 35.3984 23.8594 35.2266C23.9479 35.0521 24.0755 34.9076 24.2422 34.793C24.4089 34.6758 24.6094 34.5872 24.8438 34.5273C25.0781 34.4674 25.3398 34.4375 25.6289 34.4375H26.4688ZM30.6641 35.8789C30.6641 35.7747 30.6406 35.6784 30.5938 35.5898C30.5495 35.4987 30.457 35.4167 30.3164 35.3438C30.1784 35.2682 29.9701 35.2031 29.6914 35.1484C29.457 35.099 29.2448 35.0404 29.0547 34.9727C28.8672 34.9049 28.707 34.8229 28.5742 34.7266C28.444 34.6302 28.3438 34.5169 28.2734 34.3867C28.2031 34.2565 28.168 34.1042 28.168 33.9297C28.168 33.763 28.2044 33.6055 28.2773 33.457C28.3529 33.3086 28.4583 33.1771 28.5938 33.0625C28.7318 32.9479 28.8971 32.8581 29.0898 32.793C29.2826 32.7279 29.4974 32.6953 29.7344 32.6953C30.0729 32.6953 30.362 32.7552 30.6016 32.875C30.8411 32.9948 31.0247 33.1549 31.1523 33.3555C31.2799 33.5534 31.3438 33.7734 31.3438 34.0156H30.6211C30.6211 33.8984 30.5859 33.7852 30.5156 33.6758C30.4479 33.5638 30.3477 33.4714 30.2148 33.3984C30.0846 33.3255 29.9245 33.2891 29.7344 33.2891C29.5339 33.2891 29.3711 33.3203 29.2461 33.3828C29.1237 33.4427 29.0339 33.5195 28.9766 33.6133C28.9219 33.707 28.8945 33.806 28.8945 33.9102C28.8945 33.9883 28.9076 34.0586 28.9336 34.1211C28.9622 34.181 29.0117 34.237 29.082 34.2891C29.1523 34.3385 29.2513 34.3854 29.3789 34.4297C29.5065 34.474 29.6693 34.5182 29.8672 34.5625C30.2135 34.6406 30.4987 34.7344 30.7227 34.8438C30.9466 34.9531 31.1133 35.0872 31.2227 35.2461C31.332 35.4049 31.3867 35.5977 31.3867 35.8242C31.3867 36.0091 31.3477 36.1784 31.2695 36.332C31.194 36.4857 31.0833 36.6185 30.9375 36.7305C30.7943 36.8398 30.6224 36.9258 30.4219 36.9883C30.224 37.0482 30.0013 37.0781 29.7539 37.0781C29.3815 37.0781 29.0664 37.0117 28.8086 36.8789C28.5508 36.7461 28.3555 36.5742 28.2227 36.3633C28.0898 36.1523 28.0234 35.9297 28.0234 35.6953H28.75C28.7604 35.8932 28.8177 36.0508 28.9219 36.168C29.026 36.2826 29.1536 36.3646 29.3047 36.4141C29.4557 36.4609 29.6055 36.4844 29.7539 36.4844C29.9518 36.4844 30.1172 36.4583 30.25 36.4062C30.3854 36.3542 30.4883 36.2826 30.5586 36.1914C30.6289 36.1003 30.6641 35.9961 30.6641 35.8789Z" fill="#141D2B"/>
</svg>
