<svg width="21" height="21" viewBox="0 0 21 21" fill="none" xmlns="http://www.w3.org/2000/svg">
<path d="M19.5283 1.19101C19.9222 1.46407 20.129 1.93607 20.0549 2.40808L17.5583 18.6357C17.4998 19.014 17.2697 19.3456 16.9342 19.5329C16.5987 19.7201 16.1969 19.7435 15.8419 19.5953L11.1765 17.6565L8.50442 20.5471C8.15724 20.9255 7.61112 21.0503 7.13132 20.8631C6.65151 20.6758 6.33944 20.2116 6.33944 19.6967V16.4356C6.33944 16.2795 6.39795 16.1313 6.50328 16.0182L13.0411 8.88351C13.2674 8.63776 13.2596 8.25937 13.0255 8.02532C12.7915 7.79127 12.4131 7.77567 12.1673 7.99801L4.23298 15.0469L0.788515 13.3227C0.375024 13.1159 0.109765 12.7025 0.0980625 12.2422C0.08636 11.7818 0.328213 11.3528 0.726101 11.1226L18.202 1.1364C18.6194 0.898445 19.1343 0.92185 19.5283 1.19101Z" fill="#9FEF00"/>
</svg>
