<svg width="47" height="40" viewBox="0 0 47 40" fill="none" xmlns="http://www.w3.org/2000/svg">
<rect width="47" height="40" rx="5" fill="#9FEF00"/>
<rect width="47" height="40" rx="5" stroke="#E5E7EB"/>
<path d="M16 9H32V30H16V9Z" stroke="#E5E7EB"/>
<g clip-path="url(#clip0_983_563)">
<path d="M31.5655 12.175C31.8811 12.3937 32.0467 12.7719 31.9873 13.15L29.9873 26.15C29.9405 26.4531 29.7561 26.7187 29.4873 26.8687C29.2186 27.0187 28.8967 27.0375 28.6123 26.9187L24.8748 25.3656L22.7342 27.6812C22.4561 27.9844 22.0186 28.0844 21.6342 27.9344C21.2498 27.7844 20.9998 27.4125 20.9998 27V24.3875C20.9998 24.2625 21.0467 24.1437 21.1311 24.0531L26.3686 18.3375C26.5498 18.1406 26.5436 17.8375 26.3561 17.65C26.1686 17.4625 25.8655 17.45 25.6686 17.6281L19.3123 23.275L16.553 21.8937C16.2217 21.7281 16.0092 21.3969 15.9998 21.0281C15.9905 20.6594 16.1842 20.3156 16.503 20.1312L30.503 12.1312C30.8373 11.9406 31.2498 11.9594 31.5655 12.175Z" fill="#111927"/>
</g>
<defs>
<clipPath id="clip0_983_563">
<path d="M16 12H32V28H16V12Z" fill="white"/>
</clipPath>
</defs>
</svg>
