<svg width="46" height="41" viewBox="0 0 46 41" fill="none" xmlns="http://www.w3.org/2000/svg">
<path d="M25.0156 0.0625C36.2339 0.0625 45.3281 9.15672 45.3281 20.375C45.3281 31.5933 36.2339 40.6875 25.0156 40.6875H20.9531C9.73484 40.6875 0.640625 31.5933 0.640625 20.375C0.640625 9.15672 9.73484 0.0625 20.9531 0.0625H25.0156Z" fill="#DC2626"/>
<path d="M25.0156 0.0625C36.2339 0.0625 45.3281 9.15672 45.3281 20.375C45.3281 31.5933 36.2339 40.6875 25.0156 40.6875H20.9531C9.73484 40.6875 0.640625 31.5933 0.640625 20.375C0.640625 9.15672 9.73484 0.0625 20.9531 0.0625H25.0156Z" stroke="#E5E7EB"/>
<path d="M33.1406 32.5625H12.8281V9.20312H33.1406V32.5625Z" stroke="#E5E7EB"/>
<g clip-path="url(#clip0_1011_1067)">
<path d="M20.0932 13.0307C19.8488 12.4404 19.2045 12.1262 18.5888 12.2944L15.7958 13.0561C15.2436 13.2085 14.8596 13.7099 14.8596 14.2812C14.8596 17.6899 16.0593 20.8193 18.0588 23.2663L13.1203 27.1384C12.7902 27.3987 12.7299 27.8779 12.9902 28.208C13.2504 28.5381 13.7297 28.5984 14.0597 28.3381L32.8488 13.6116C33.1789 13.3513 33.2392 12.8721 32.9789 12.542C32.7187 12.2119 32.2394 12.1516 31.9094 12.4118L20.8581 21.0732C20.2931 20.3909 19.8139 19.6387 19.4299 18.8293L20.9946 17.5503C21.4294 17.1948 21.5785 16.5981 21.3627 16.0808L20.0932 13.0339V13.0307ZM23.1655 23.1553L20.2678 25.4404C22.6894 27.3574 25.749 28.5 29.0783 28.5C29.6496 28.5 30.1511 28.116 30.3034 27.5637L31.0651 24.7707C31.2333 24.155 30.9191 23.5107 30.3288 23.2663L27.2819 21.9968C26.7646 21.781 26.1647 21.9302 25.8124 22.365L24.5302 23.9297C24.0541 23.7043 23.6003 23.4472 23.1655 23.1584V23.1553Z" fill="white"/>
</g>
<defs>
<clipPath id="clip0_1011_1067">
<path d="M12.8281 12.25H33.1406V28.5H12.8281V12.25Z" fill="white"/>
</clipPath>
</defs>
</svg>
