<svg width="80" height="20" viewBox="0 0 80 20" fill="none" xmlns="http://www.w3.org/2000/svg">
<path d="M75.2188 0C77.4279 0 79.2188 1.79086 79.2188 4V16C79.2188 18.2091 77.4279 20 75.2188 20H4C1.79086 20 0 18.2091 0 16V4C0 1.79086 1.79086 0 4 0H75.2188Z" fill="#D1FAE5"/>
<path d="M75.2188 0C77.4279 0 79.2188 1.79086 79.2188 4V16C79.2188 18.2091 77.4279 20 75.2188 20H4C1.79086 20 0 18.2091 0 16V4C0 1.79086 1.79086 0 4 0H75.2188Z" stroke="#E5E7EB"/>
<path d="M15.3555 11.8027C15.3555 11.627 15.3281 11.4707 15.2734 11.334C15.2227 11.1973 15.1309 11.0723 14.998 10.959C14.8652 10.8457 14.6777 10.7363 14.4355 10.6309C14.1973 10.5215 13.8926 10.4102 13.5215 10.2969C13.1152 10.1719 12.7402 10.0332 12.3965 9.88086C12.0566 9.72461 11.7598 9.54492 11.5059 9.3418C11.252 9.13477 11.0547 8.89844 10.9141 8.63281C10.7734 8.36328 10.7031 8.05273 10.7031 7.70117C10.7031 7.35352 10.7754 7.03711 10.9199 6.75195C11.0684 6.4668 11.2773 6.2207 11.5469 6.01367C11.8203 5.80273 12.1426 5.64062 12.5137 5.52734C12.8848 5.41016 13.2949 5.35156 13.7441 5.35156C14.377 5.35156 14.9219 5.46875 15.3789 5.70312C15.8398 5.9375 16.1934 6.25195 16.4395 6.64648C16.6895 7.04102 16.8145 7.47656 16.8145 7.95312H15.3555C15.3555 7.67188 15.2949 7.42383 15.1738 7.20898C15.0566 6.99023 14.877 6.81836 14.6348 6.69336C14.3965 6.56836 14.0938 6.50586 13.7266 6.50586C13.3789 6.50586 13.0898 6.55859 12.8594 6.66406C12.6289 6.76953 12.457 6.91211 12.3438 7.0918C12.2305 7.27148 12.1738 7.47461 12.1738 7.70117C12.1738 7.86133 12.2109 8.00781 12.2852 8.14062C12.3594 8.26953 12.4727 8.39062 12.625 8.50391C12.7773 8.61328 12.9688 8.7168 13.1992 8.81445C13.4297 8.91211 13.7012 9.00586 14.0137 9.0957C14.4863 9.23633 14.8984 9.39258 15.25 9.56445C15.6016 9.73242 15.8945 9.92383 16.1289 10.1387C16.3633 10.3535 16.5391 10.5977 16.6562 10.8711C16.7734 11.1406 16.832 11.4473 16.832 11.791C16.832 12.1504 16.7598 12.4746 16.6152 12.7637C16.4707 13.0488 16.2637 13.293 15.9941 13.4961C15.7285 13.6953 15.4082 13.8496 15.0332 13.959C14.6621 14.0645 14.248 14.1172 13.791 14.1172C13.3809 14.1172 12.9766 14.0625 12.5781 13.9531C12.1836 13.8438 11.8242 13.6777 11.5 13.4551C11.1758 13.2285 10.918 12.9473 10.7266 12.6113C10.5352 12.2715 10.4395 11.875 10.4395 11.4219H11.9102C11.9102 11.6992 11.957 11.9355 12.0508 12.1309C12.1484 12.3262 12.2832 12.4863 12.4551 12.6113C12.627 12.7324 12.8262 12.8223 13.0527 12.8809C13.2832 12.9395 13.5293 12.9688 13.791 12.9688C14.1348 12.9688 14.4219 12.9199 14.6523 12.8223C14.8867 12.7246 15.0625 12.5879 15.1797 12.4121C15.2969 12.2363 15.3555 12.0332 15.3555 11.8027ZM21.8066 12.5059V7.66016H23.2246V14H21.8887L21.8066 12.5059ZM22.0059 11.1875L22.4805 11.1758C22.4805 11.6016 22.4336 11.9941 22.3398 12.3535C22.2461 12.709 22.1016 13.0195 21.9062 13.2852C21.7109 13.5469 21.4609 13.752 21.1562 13.9004C20.8516 14.0449 20.4863 14.1172 20.0605 14.1172C19.752 14.1172 19.4688 14.0723 19.2109 13.9824C18.9531 13.8926 18.7305 13.7539 18.543 13.5664C18.3594 13.3789 18.2168 13.1348 18.1152 12.834C18.0137 12.5332 17.9629 12.1738 17.9629 11.7559V7.66016H19.375V11.7676C19.375 11.998 19.4023 12.1914 19.457 12.3477C19.5117 12.5 19.5859 12.623 19.6797 12.7168C19.7734 12.8105 19.8828 12.877 20.0078 12.916C20.1328 12.9551 20.2656 12.9746 20.4062 12.9746C20.8086 12.9746 21.125 12.8965 21.3555 12.7402C21.5898 12.5801 21.7559 12.3652 21.8535 12.0957C21.9551 11.8262 22.0059 11.5234 22.0059 11.1875ZM27.2617 12.9922C27.4922 12.9922 27.6992 12.9473 27.8828 12.8574C28.0703 12.7637 28.2207 12.6348 28.334 12.4707C28.4512 12.3066 28.5156 12.1172 28.5273 11.9023H29.8574C29.8496 12.3125 29.7285 12.6855 29.4941 13.0215C29.2598 13.3574 28.9492 13.625 28.5625 13.8242C28.1758 14.0195 27.748 14.1172 27.2793 14.1172C26.7949 14.1172 26.373 14.0352 26.0137 13.8711C25.6543 13.7031 25.3555 13.4727 25.1172 13.1797C24.8789 12.8867 24.6992 12.5488 24.5781 12.166C24.4609 11.7832 24.4023 11.373 24.4023 10.9355V10.7305C24.4023 10.293 24.4609 9.88281 24.5781 9.5C24.6992 9.11328 24.8789 8.77344 25.1172 8.48047C25.3555 8.1875 25.6543 7.95898 26.0137 7.79492C26.373 7.62695 26.793 7.54297 27.2734 7.54297C27.7812 7.54297 28.2266 7.64453 28.6094 7.84766C28.9922 8.04688 29.293 8.32617 29.5117 8.68555C29.7344 9.04102 29.8496 9.45508 29.8574 9.92773H28.5273C28.5156 9.69336 28.457 9.48242 28.3516 9.29492C28.25 9.10352 28.1055 8.95117 27.918 8.83789C27.7344 8.72461 27.5137 8.66797 27.2559 8.66797C26.9707 8.66797 26.7344 8.72656 26.5469 8.84375C26.3594 8.95703 26.2129 9.11328 26.1074 9.3125C26.002 9.50781 25.9258 9.72852 25.8789 9.97461C25.8359 10.2168 25.8145 10.4688 25.8145 10.7305V10.9355C25.8145 11.1973 25.8359 11.4512 25.8789 11.6973C25.9219 11.9434 25.9961 12.1641 26.1016 12.3594C26.2109 12.5508 26.3594 12.7051 26.5469 12.8223C26.7344 12.9355 26.9727 12.9922 27.2617 12.9922ZM33.5312 12.9922C33.7617 12.9922 33.9688 12.9473 34.1523 12.8574C34.3398 12.7637 34.4902 12.6348 34.6035 12.4707C34.7207 12.3066 34.7852 12.1172 34.7969 11.9023H36.127C36.1191 12.3125 35.998 12.6855 35.7637 13.0215C35.5293 13.3574 35.2188 13.625 34.832 13.8242C34.4453 14.0195 34.0176 14.1172 33.5488 14.1172C33.0645 14.1172 32.6426 14.0352 32.2832 13.8711C31.9238 13.7031 31.625 13.4727 31.3867 13.1797C31.1484 12.8867 30.9688 12.5488 30.8477 12.166C30.7305 11.7832 30.6719 11.373 30.6719 10.9355V10.7305C30.6719 10.293 30.7305 9.88281 30.8477 9.5C30.9688 9.11328 31.1484 8.77344 31.3867 8.48047C31.625 8.1875 31.9238 7.95898 32.2832 7.79492C32.6426 7.62695 33.0625 7.54297 33.543 7.54297C34.0508 7.54297 34.4961 7.64453 34.8789 7.84766C35.2617 8.04688 35.5625 8.32617 35.7812 8.68555C36.0039 9.04102 36.1191 9.45508 36.127 9.92773H34.7969C34.7852 9.69336 34.7266 9.48242 34.6211 9.29492C34.5195 9.10352 34.375 8.95117 34.1875 8.83789C34.0039 8.72461 33.7832 8.66797 33.5254 8.66797C33.2402 8.66797 33.0039 8.72656 32.8164 8.84375C32.6289 8.95703 32.4824 9.11328 32.377 9.3125C32.2715 9.50781 32.1953 9.72852 32.1484 9.97461C32.1055 10.2168 32.084 10.4688 32.084 10.7305V10.9355C32.084 11.1973 32.1055 11.4512 32.1484 11.6973C32.1914 11.9434 32.2656 12.1641 32.3711 12.3594C32.4805 12.5508 32.6289 12.7051 32.8164 12.8223C33.0039 12.9355 33.2422 12.9922 33.5312 12.9922ZM40.0059 14.1172C39.5371 14.1172 39.1133 14.041 38.7344 13.8887C38.3594 13.7324 38.0391 13.5156 37.7734 13.2383C37.5117 12.9609 37.3105 12.6348 37.1699 12.2598C37.0293 11.8848 36.959 11.4805 36.959 11.0469V10.8125C36.959 10.3164 37.0312 9.86719 37.1758 9.46484C37.3203 9.0625 37.5215 8.71875 37.7793 8.43359C38.0371 8.14453 38.3418 7.92383 38.6934 7.77148C39.0449 7.61914 39.4258 7.54297 39.8359 7.54297C40.2891 7.54297 40.6855 7.61914 41.0254 7.77148C41.3652 7.92383 41.6465 8.13867 41.8691 8.41602C42.0957 8.68945 42.2637 9.01562 42.373 9.39453C42.4863 9.77344 42.543 10.1914 42.543 10.6484V11.252H37.6445V10.2383H41.1484V10.127C41.1406 9.87305 41.0898 9.63477 40.9961 9.41211C40.9062 9.18945 40.7676 9.00977 40.5801 8.87305C40.3926 8.73633 40.1426 8.66797 39.8301 8.66797C39.5957 8.66797 39.3867 8.71875 39.2031 8.82031C39.0234 8.91797 38.873 9.06055 38.752 9.24805C38.6309 9.43555 38.5371 9.66211 38.4707 9.92773C38.4082 10.1895 38.377 10.4844 38.377 10.8125V11.0469C38.377 11.3242 38.4141 11.582 38.4883 11.8203C38.5664 12.0547 38.6797 12.2598 38.8281 12.4355C38.9766 12.6113 39.1562 12.75 39.3672 12.8516C39.5781 12.9492 39.8184 12.998 40.0879 12.998C40.4277 12.998 40.7305 12.9297 40.9961 12.793C41.2617 12.6562 41.4922 12.4629 41.6875 12.2129L42.4316 12.9336C42.2949 13.1328 42.1172 13.3242 41.8984 13.5078C41.6797 13.6875 41.4121 13.834 41.0957 13.9473C40.7832 14.0605 40.4199 14.1172 40.0059 14.1172ZM47.2012 12.2832C47.2012 12.1426 47.166 12.0156 47.0957 11.9023C47.0254 11.7852 46.8906 11.6797 46.6914 11.5859C46.4961 11.4922 46.207 11.4062 45.8242 11.3281C45.4883 11.2539 45.1797 11.166 44.8984 11.0645C44.6211 10.959 44.3828 10.832 44.1836 10.6836C43.9844 10.5352 43.8301 10.3594 43.7207 10.1562C43.6113 9.95312 43.5566 9.71875 43.5566 9.45312C43.5566 9.19531 43.6133 8.95117 43.7266 8.7207C43.8398 8.49023 44.002 8.28711 44.2129 8.11133C44.4238 7.93555 44.6797 7.79688 44.9805 7.69531C45.2852 7.59375 45.625 7.54297 46 7.54297C46.5312 7.54297 46.9863 7.63281 47.3652 7.8125C47.748 7.98828 48.041 8.22852 48.2441 8.5332C48.4473 8.83398 48.5488 9.17383 48.5488 9.55273H47.1367C47.1367 9.38477 47.0938 9.22852 47.0078 9.08398C46.9258 8.93555 46.8008 8.81641 46.6328 8.72656C46.4648 8.63281 46.2539 8.58594 46 8.58594C45.7578 8.58594 45.5566 8.625 45.3965 8.70312C45.2402 8.77734 45.123 8.875 45.0449 8.99609C44.9707 9.11719 44.9336 9.25 44.9336 9.39453C44.9336 9.5 44.9531 9.5957 44.9922 9.68164C45.0352 9.76367 45.1055 9.83984 45.2031 9.91016C45.3008 9.97656 45.4336 10.0391 45.6016 10.0977C45.7734 10.1562 45.9883 10.2129 46.2461 10.2676C46.7305 10.3691 47.1465 10.5 47.4941 10.6602C47.8457 10.8164 48.1152 11.0195 48.3027 11.2695C48.4902 11.5156 48.584 11.8281 48.584 12.207C48.584 12.4883 48.5234 12.7461 48.4023 12.9805C48.2852 13.2109 48.1133 13.4121 47.8867 13.584C47.6602 13.752 47.3887 13.8828 47.0723 13.9766C46.7598 14.0703 46.4082 14.1172 46.0176 14.1172C45.4434 14.1172 44.957 14.0156 44.5586 13.8125C44.1602 13.6055 43.8574 13.3418 43.6504 13.0215C43.4473 12.6973 43.3457 12.3613 43.3457 12.0137H44.7109C44.7266 12.2754 44.7988 12.4844 44.9277 12.6406C45.0605 12.793 45.2246 12.9043 45.4199 12.9746C45.6191 13.041 45.8242 13.0742 46.0352 13.0742C46.2891 13.0742 46.502 13.041 46.6738 12.9746C46.8457 12.9043 46.9766 12.8105 47.0664 12.6934C47.1562 12.5723 47.2012 12.4355 47.2012 12.2832ZM53.377 12.2832C53.377 12.1426 53.3418 12.0156 53.2715 11.9023C53.2012 11.7852 53.0664 11.6797 52.8672 11.5859C52.6719 11.4922 52.3828 11.4062 52 11.3281C51.6641 11.2539 51.3555 11.166 51.0742 11.0645C50.7969 10.959 50.5586 10.832 50.3594 10.6836C50.1602 10.5352 50.0059 10.3594 49.8965 10.1562C49.7871 9.95312 49.7324 9.71875 49.7324 9.45312C49.7324 9.19531 49.7891 8.95117 49.9023 8.7207C50.0156 8.49023 50.1777 8.28711 50.3887 8.11133C50.5996 7.93555 50.8555 7.79688 51.1562 7.69531C51.4609 7.59375 51.8008 7.54297 52.1758 7.54297C52.707 7.54297 53.1621 7.63281 53.541 7.8125C53.9238 7.98828 54.2168 8.22852 54.4199 8.5332C54.623 8.83398 54.7246 9.17383 54.7246 9.55273H53.3125C53.3125 9.38477 53.2695 9.22852 53.1836 9.08398C53.1016 8.93555 52.9766 8.81641 52.8086 8.72656C52.6406 8.63281 52.4297 8.58594 52.1758 8.58594C51.9336 8.58594 51.7324 8.625 51.5723 8.70312C51.416 8.77734 51.2988 8.875 51.2207 8.99609C51.1465 9.11719 51.1094 9.25 51.1094 9.39453C51.1094 9.5 51.1289 9.5957 51.168 9.68164C51.2109 9.76367 51.2812 9.83984 51.3789 9.91016C51.4766 9.97656 51.6094 10.0391 51.7773 10.0977C51.9492 10.1562 52.1641 10.2129 52.4219 10.2676C52.9062 10.3691 53.3223 10.5 53.6699 10.6602C54.0215 10.8164 54.291 11.0195 54.4785 11.2695C54.666 11.5156 54.7598 11.8281 54.7598 12.207C54.7598 12.4883 54.6992 12.7461 54.5781 12.9805C54.4609 13.2109 54.2891 13.4121 54.0625 13.584C53.8359 13.752 53.5645 13.8828 53.248 13.9766C52.9355 14.0703 52.584 14.1172 52.1934 14.1172C51.6191 14.1172 51.1328 14.0156 50.7344 13.8125C50.3359 13.6055 50.0332 13.3418 49.8262 13.0215C49.623 12.6973 49.5215 12.3613 49.5215 12.0137H50.8867C50.9023 12.2754 50.9746 12.4844 51.1035 12.6406C51.2363 12.793 51.4004 12.9043 51.5957 12.9746C51.7949 13.041 52 13.0742 52.2109 13.0742C52.4648 13.0742 52.6777 13.041 52.8496 12.9746C53.0215 12.9043 53.1523 12.8105 53.2422 12.6934C53.332 12.5723 53.377 12.4355 53.377 12.2832ZM57.9062 14H56.4941V7.05078C56.4941 6.57812 56.582 6.18164 56.7578 5.86133C56.9375 5.53711 57.1934 5.29297 57.5254 5.12891C57.8574 4.96094 58.25 4.87695 58.7031 4.87695C58.8438 4.87695 58.9824 4.88672 59.1191 4.90625C59.2559 4.92188 59.3887 4.94727 59.5176 4.98242L59.4824 6.07227C59.4043 6.05273 59.3184 6.03906 59.2246 6.03125C59.1348 6.02344 59.0371 6.01953 58.9316 6.01953C58.7168 6.01953 58.5312 6.06055 58.375 6.14258C58.2227 6.2207 58.1055 6.33594 58.0234 6.48828C57.9453 6.64062 57.9062 6.82812 57.9062 7.05078V14ZM59.2129 7.66016V8.69141H55.5215V7.66016H59.2129ZM64.0527 12.5059V7.66016H65.4707V14H64.1348L64.0527 12.5059ZM64.252 11.1875L64.7266 11.1758C64.7266 11.6016 64.6797 11.9941 64.5859 12.3535C64.4922 12.709 64.3477 13.0195 64.1523 13.2852C63.957 13.5469 63.707 13.752 63.4023 13.9004C63.0977 14.0449 62.7324 14.1172 62.3066 14.1172C61.998 14.1172 61.7148 14.0723 61.457 13.9824C61.1992 13.8926 60.9766 13.7539 60.7891 13.5664C60.6055 13.3789 60.4629 13.1348 60.3613 12.834C60.2598 12.5332 60.209 12.1738 60.209 11.7559V7.66016H61.6211V11.7676C61.6211 11.998 61.6484 12.1914 61.7031 12.3477C61.7578 12.5 61.832 12.623 61.9258 12.7168C62.0195 12.8105 62.1289 12.877 62.2539 12.916C62.3789 12.9551 62.5117 12.9746 62.6523 12.9746C63.0547 12.9746 63.3711 12.8965 63.6016 12.7402C63.8359 12.5801 64.002 12.3652 64.0996 12.0957C64.2012 11.8262 64.252 11.5234 64.252 11.1875ZM68.4297 5V14H67.0117V5H68.4297Z" fill="#065F46"/>
</svg>
