<svg width="15" height="15" viewBox="0 0 15 15" fill="none" xmlns="http://www.w3.org/2000/svg">
<path d="M12.2424 1.63113C12.523 1.63113 12.7525 1.86068 12.7525 2.14123V12.3433C12.7525 12.6238 12.523 12.8534 12.2424 12.8534H2.0404C1.75985 12.8534 1.5303 12.6238 1.5303 12.3433V2.14123C1.5303 1.86068 1.75985 1.63113 2.0404 1.63113H12.2424ZM2.0404 0.10083C0.914994 0.10083 0 1.01582 0 2.14123V12.3433C0 13.4687 0.914994 14.3837 2.0404 14.3837H12.2424C13.3678 14.3837 14.2828 13.4687 14.2828 12.3433V2.14123C14.2828 1.01582 13.3678 0.10083 12.2424 0.10083H2.0404Z" fill="#F3F4F6"/>
</svg>
